<?xml version="1.0" encoding="utf-8"?>
<!-- Generator: Adobe Illustrator 16.0.0, SVG Export Plug-In . SVG Version: 6.00 Build 0)  -->
<!DOCTYPE svg PUBLIC "-//W3C//DTD SVG 1.1//EN" "http://www.w3.org/Graphics/SVG/1.1/DTD/svg11.dtd">
<svg version="1.1" id="Layer_1" xmlns="http://www.w3.org/2000/svg" xmlns:xlink="http://www.w3.org/1999/xlink" x="0px" y="0px"
	 width="576.963px" height="517.268px" viewBox="-39 0 576.963 517.268" enable-background="new -39 0 576.963 517.268"
	 xml:space="preserve">
<g>
	<g>
		<g>
			<g>
				<g>
					<path fill="#8D2020" d="M495.148,21.152c0.703,0.21,0.562-0.282,0.689-0.333C494.614,20.624,495.151,21.271,495.148,21.152z"/>
					<path fill="#8D2020" d="M483.148,19.782l0.235-0.147c0,0-0.452,0.043-0.903,0.084c-0.451,0.04-0.902,0.092-0.902,0.092
						s0.393-0.016,0.785-0.019C482.756,19.787,483.148,19.782,483.148,19.782z"/>
					<path fill="#8D2020" d="M472.052,18.559c0.989,0.84,4.036,0.205,5.988,0.7l0.307,0.212l0.962-0.5
						C476.889,18.741,473.729,18.918,472.052,18.559z"/>
					<path fill="#8D2020" d="M466.192,16.585c0.355,0.31-1.303,0.203,1.389,0.147c-0.134-0.038-0.172-0.059-0.249-0.084
						C467.091,16.643,466.758,16.629,466.192,16.585z"/>
					<path fill="#8D2020" d="M467.332,16.648C468.514,16.674,466.572,16.37,467.332,16.648L467.332,16.648z"/>
					<path fill="#8D2020" d="M461.883,16.624l1.56-0.224c-0.32-0.196-1.7-0.252-1.185-0.372
						C460.66,16.141,460.986,16.32,461.883,16.624z"/>
					<path fill="#8D2020" d="M460.402,17.146l0.804-0.094C461.067,16.977,460.855,16.947,460.402,17.146z"/>
					<path fill="#8D2020" d="M462.914,16.852l-1.708,0.201c0.222,0.127,0.239,0.372,0.783-0.07
						C461.845,17.205,462.186,16.996,462.914,16.852z"/>
					<path fill="#8D2020" d="M463.875,17.002c0.864,0.199,1.98,0.348,0.418,0.548C467.256,17.562,466.847,17.014,463.875,17.002z"/>
					<path fill="#8D2020" d="M471.429,19.305l1.136,0.299l1.015-0.166C473.072,19.507,471.375,19.055,471.429,19.305z"/>
					<path fill="#8D2020" d="M452.239,16.15c-0.097,0.162,0.521,0.425,0.638,0.631l1.141-0.188
						C453.429,16.475,452.318,16.391,452.239,16.15z"/>
					<path fill="#8D2020" d="M452.877,16.781l-1.703,0.291C452.695,17.092,452.974,16.957,452.877,16.781z"/>
					<polygon fill="#8D2020" points="460.11,17.982 462.927,17.458 459.571,17.98 					"/>
					<polygon fill="#8D2020" points="445.724,16.214 446.684,15.824 444.974,16.418 					"/>
					<path fill="#8D2020" d="M441.417,16.372c0.705-0.326-0.99-0.499-0.241-0.708c-1.17,0.083-2.161,0.373-3.05,0.637
						C439.074,16.143,440.094,16.151,441.417,16.372z"/>
					<path fill="#8D2020" d="M436.629,16.689c0.475-0.086,0.964-0.232,1.497-0.387C437.621,16.387,437.126,16.503,436.629,16.689z"
						/>
					<path fill="#8D2020" d="M448.271,17.021c-0.134-0.094-0.391-0.346-1.347-0.437l0.676,0.441
						C447.805,17.025,448.036,17.023,448.271,17.021z"/>
					<path fill="#8D2020" d="M447.624,17.041l-0.023-0.014c-0.727,0-1.229,0-1.444,0C446.34,17.029,446.783,17.033,447.624,17.041z"
						/>
					<path fill="#8D2020" d="M448.439,17.021c-0.062,0-0.107,0-0.17,0C448.336,17.064,448.375,17.08,448.439,17.021z"/>
					<path fill="#8D2020" d="M455.646,17.523c-1.004,0.25-3.086,0.514-1.068,0.908C455.296,18.124,454.14,17.898,455.646,17.523z"/>
					<path fill="#8D2020" d="M449.278,17.578l1.809,0.088c-0.036-0.119-0.364-0.291,0.131-0.421L449.278,17.578z"/>
					<polygon fill="#8D2020" points="448.396,17.732 449.278,17.578 448.607,17.547 					"/>
					<path fill="#8D2020" d="M439.725,17.032c-0.772,0.217-1.623,0.257-2.583,0.313c1.032,0.062,2.098,0.079,3.11,0.056
						C440.391,17.255,440.83,16.989,439.725,17.032z"/>
					<path fill="#8D2020" d="M443.562,17.066c-0.055,0.009-0.123,0.021-0.174,0.029C443.496,17.132,443.582,17.143,443.562,17.066z"
						/>
					<path fill="#8D2020" d="M427.702,17.583c0.051,0.026,0.1,0.052,0.151,0.079c0.013-0.027,0.02-0.052,0.033-0.079H427.702z"/>
					<path fill="#8D2020" d="M440.427,17.482c0.777,0.068,1.238-0.053,1.677-0.204c-0.578,0.06-1.191,0.104-1.852,0.123
						C440.189,17.467,440.179,17.51,440.427,17.482z"/>
					<path fill="#8D2020" d="M433.998,16.973c0.404,0.084,0.862,0.152,1.345,0.213C434.945,17.053,434.137,16.85,433.998,16.973z"/>
					<path fill="#8D2020" d="M443.125,16.977c0.038-0.008,0.074-0.016,0.115-0.023C442.984,16.862,443.017,16.909,443.125,16.977z"
						/>
					<path fill="#8D2020" d="M443.125,16.977c-0.398,0.074-0.709,0.193-1.021,0.302c0.472-0.048,0.907-0.106,1.285-0.183
						C443.292,17.066,443.195,17.02,443.125,16.977z"/>
					<path fill="#8D2020" d="M424.898,20.553c0.131-0.419,2.154-0.849,3.92-0.438c1.721-0.354,0.556-1.711-0.965-2.451
						c-0.05,0.185-0.045,0.354-1.812,0.642c0.625,0.217,3.948,0.449,2.46,0.862c-2.348,0.269-1.932-0.103-3.077-0.305
						c0.981,0.509-2.979,0.807-2.457,1.569l2.062-0.303C425.069,20.248,424.323,20.451,424.898,20.553z"/>
					<path fill="#8D2020" d="M431.234,17.626l0.729-0.071c-0.834-0.053-1.437-0.201-2.538-0.508
						c-1.208,0.232-1.456,0.395-1.537,0.536l3.596-0.026L431.234,17.626z"/>
					<path fill="#8D2020" d="M435.244,17.466c-0.559,0.474-2.309,0.714-1.221,1.181c2.146-0.088,1.493-0.422,2.771-0.655
						c-3.463,0.207,0.989-0.282-1.522-0.474c0.681-0.097,1.291-0.137,1.869-0.172c-0.626-0.039-1.229-0.092-1.799-0.16
						c0.032,0.01,0.055,0.018,0.081,0.025l0.017-0.002l-0.004,0.007c0.151,0.054,0.201,0.087,0.032,0.058
						c-0.012,0.007-0.054,0.01-0.071,0.012c-0.021,0.064-0.086,0.122-0.152,0.177c-1.006-0.067-0.161-0.114,0.152-0.177
						c0.011-0.021,0.036-0.045,0.039-0.069l-0.013-0.005l-3.461,0.342C432.699,17.6,433.616,17.561,435.244,17.466z"/>
					<path fill="#8D2020" d="M452.727,19.418c-0.108-0.04-0.104-0.072-0.112-0.105C452.39,19.371,452.305,19.41,452.727,19.418z"/>
					<path fill="#8D2020" d="M451.295,19.154c0.252-0.066,0.461-0.25,1.283-0.21c0.713,0.131-0.003,0.219,0.035,0.368
						c0.494-0.125,1.73-0.342,0.178-0.551l-0.245,0.063c-1.399-0.146-3.207-0.7-2.964-0.765
						C449.996,18.468,450.36,18.758,451.295,19.154z"/>
					<path fill="#8D2020" d="M443.174,18.391l-2.888,0.293l1.483,0.36l-0.082-0.235C443.336,18.862,442.974,18.578,443.174,18.391z"
						/>
					<polygon fill="#8D2020" points="427.367,17.363 427.738,16.872 426.09,17.591 					"/>
					<polygon fill="#8D2020" points="423.631,17.488 423.764,17.066 422.781,17.334 					"/>
					<path fill="#8D2020" d="M212.102,28.163l-0.853,0.159C211.654,28.266,211.913,28.214,212.102,28.163z"/>
					<path fill="#8D2020" d="M218.298,27.904l0.136-0.213C218.158,27.817,218.047,27.907,218.298,27.904z"/>
					<path fill="#8D2020" d="M331.668,23.016c-1.218-0.423-2.561-1.065-2.426-0.588l0.361,0.469
						C330.46,22.835,331.113,22.903,331.668,23.016z"/>
					<path fill="#8D2020" d="M268.477,23.954c0.116,0.044,0.239,0.09,0.36,0.136c0.302-0.162,0.583-0.312,0.837-0.449
						C269.312,23.734,268.904,23.841,268.477,23.954z"/>
					<path fill="#8D2020" d="M267.6,25.869l-1.627-0.279C266.339,25.689,266.861,25.783,267.6,25.869z"/>
					<path fill="#8D2020" d="M178.23,28.146l-1.023,0.399C178.761,28.652,178.092,28.369,178.23,28.146z"/>
					<path fill="#8D2020" d="M385.044,19.928c-1.084-0.087-1.933-0.076-2.679-0.031C383.67,20.039,384.739,20.337,385.044,19.928z"
						/>
					<path fill="#8D2020" d="M214.253,23.171c-0.509,0.106-0.723,0.21-0.702,0.312C214.076,23.381,214.369,23.279,214.253,23.171z"
						/>
					<path fill="#8D2020" d="M379.296,20.188c0.191,0.027,0.377,0.035,0.571,0.055c0.771-0.15,1.546-0.285,2.498-0.346
						C381.401,19.79,380.308,19.771,379.296,20.188z"/>
					<path fill="#8D2020" d="M56.798,25.946c-0.089-0.019-0.196-0.027-0.277-0.05C56.495,25.959,56.618,25.96,56.798,25.946z"/>
					<path fill="#8D2020" d="M21.24,21.986c0.349-0.035,0.918-0.047,1.456-0.063C22.434,21.896,21.995,21.908,21.24,21.986z"/>
					<path fill="#8D2020" d="M408.411,17.753C409.21,17.67,408.535,17.694,408.411,17.753L408.411,17.753z"/>
					<path fill="#8D2020" d="M412.393,19.43c-0.168,0.057-0.294,0.127-0.31,0.233C412.145,19.55,412.252,19.477,412.393,19.43z"/>
					<path fill="#8D2020" d="M371.66,23.778c-0.023,0.001-0.042,0.002-0.069,0.004C371.836,23.852,371.793,23.838,371.66,23.778z"/>
					<path fill="#8D2020" d="M409.629,17.904c-0.305-0.047-0.655-0.087-1.033-0.09C408.763,17.836,409.076,17.861,409.629,17.904z"
						/>
					<path fill="#8D2020" d="M409.455,17.692c0.278,0.009,0.497,0.016,0.705,0.021C410.258,17.634,410.166,17.589,409.455,17.692z"
						/>
					<path fill="#8D2020" d="M407.298,17.854c0.457-0.039,0.886-0.045,1.298-0.039c-0.158-0.021-0.226-0.043-0.185-0.062
						C408.177,17.773,407.847,17.805,407.298,17.854z"/>
					<path fill="#8D2020" d="M122.001,23.452c-0.053-0.013-0.113-0.021-0.171-0.04C121.029,23.619,121.381,23.581,122.001,23.452z"
						/>
					<path fill="#8D2020" d="M310.812,27.07c0.037-0.003,0.059-0.014,0.093-0.02c-0.037-0.007-0.084-0.015-0.117-0.021
						L310.812,27.07z"/>
					<path fill="#8D2020" d="M307.945,27.295c1.237-0.521,1.927-0.423,2.843-0.264l-0.889-1.366L307.945,27.295z"/>
					<path fill="#8D2020" d="M197.229,28.567l2.028,0.428c-2.46,0.664-4.243,0.417-2.335,1.012c0.303-1.442,7.928-0.088,8.19-1.538
						l1.346,0.242c-0.384,0.003-0.444,0.092-0.824,0.094c2.626,0.571,1.909-1.131,5.259-1.078c1.17,0.057,1.998,0.228,1.209,0.436
						l2.583-0.477c0.759-0.006,0.59,0.252-0.166,0.26l3.941-0.299l-0.026,0.043c0.542-0.252,1.785-0.66,2.393-0.838
						c1.009,0.158-0.489,0.176-0.223,0.343l2.146-0.451c0.906,0.331-0.867,0.778-2.367,0.795c2.115,1.341,1.775-0.447,6.191,0.185
						l-2.033,0.28c1.365,0.754,2.942,0.382,5.276,0.782c-0.559-0.24-4.693-1.062-2.364-1.534c0.669,0.077,1.544,0.087,2.798-0.263
						c0.038,0.511,1.269,0.326,2.817,0.224l-0.074,0.685c1.665-0.275,1.517-0.614,2.489-0.967c1.871-0.022,2.278,0.484,2.734,0.906
						c2.991-0.033-2.096-0.745,1.437-1.041c2.497,0.161,4.228-0.275,7.201-0.678c1.75,0.215-0.295,0.418,0.335,0.605l1.533-0.559
						c0.379,0.009,0.26,0.177,0.2,0.261c1.298-0.224,0.092-0.68,2.138-0.886c0.541-0.754,4.226,1.047,6.748,0.169
						c0.627,0.187-0.297,0.419-0.103,0.681c3.472-0.597,2.976-0.438,5.83-1.22l2.436,0.419c-1.788-0.49,0.495-1.119,2.503-1.637
						c-0.635-0.239-1.178-0.449-1.543-0.547l3.205-0.4c0.387,0.107,0.062,0.344-0.464,0.633c0.22-0.058,0.427-0.115,0.588-0.169
						c1.144,0.257,0.548,0.634-0.272,1.025c-0.389-0.138-0.774-0.272-1.151-0.406c-0.792,0.421-1.531,0.886-1.367,1.282
						c0.208-0.081,0.607-0.152,1.048-0.195c-0.207,0.114-0.339,0.217-0.242,0.283c0.106,0.07,0.44-0.083,0.965-0.262l0.723,0.749
						l0.178-0.304c0,0,0.262,0.029,0.652,0.073c0.393,0.052,0.913,0.122,1.436,0.191c1.045,0.139,2.088,0.278,2.088,0.278
						c2.996-0.703,5.615-1.772,10.377-1.99c-1.189,0.531-0.271,0.902-0.349,1.558c-1.282-0.722-3.683,0.224-6.14,0.032
						c1.283,0.099,0.996,0.406,0.668,0.51l4.396-0.546c-0.108,0.536,0.924,0.422,2.064,0.667c-0.844-1.08,3.286-0.643,5.08-0.934
						c0.102,0.358-0.336,0.715-2.512,0.586c2.383,0.848,3.138-1.188,5.479-0.461c-0.532,0-0.817-0.062-1.032,0.115
						c1.252-0.291,4.282,0.021,3.559,0.316l-0.531-0.003c3.525,0.22,10.746,0.438,11.311-0.453c0.029,0.118-0.507,1.067-0.727,1.242
						l6.43-2.774c-0.589,0.751,1.461,2.686-1.484,3.001c0.836,0.146,1.869,0.317,3.652,0.117c-0.567-0.134-1.38-1.179-0.593-1.218
						c2.113,0.952,1.474,0.523,4.09,1.369c-0.851-0.202,0.162-1.377,1.521-1.282c-0.222,0.173,0.055,1.204-0.448,1.31l3.441-1.052
						c-0.855,0.181-0.201,1.004,0.538,1.373c-0.351-0.233,2.952,0.099,3.868,0.006l-1.438-0.312
						c3.854,0.278,3.854-1.583,7.646-1.425c-0.46,0.235-1.157,1.489,0.786,1.688c0.448-0.313,1.438-0.962,2.721-1.733
						c1.285-0.752,2.865-1.492,4.529-1.771l0.648,0.333l2.551-0.464c-1.554,0.96-6.02,3.013-8.503,3.83
						c1.443,0.24,0.403,0.402,2.563,0.313c0.77,0.308-1.173,0.527-1.812,0.563l5.048,0.082c-0.239-0.708,3.834-0.815,3.619-1.404
						l-5.443,0.88c-0.228-0.707,3.112-2.106,6.653-2.071c0.915,0.26-0.623,1.287-0.542,1.521c0.227-0.128,1.067-0.268,1.893-0.354
						c0.823-0.095,1.629-0.174,1.797-0.093l-1.486,0.476c1.991,0.146,3.173-1.146,5.583-0.615c0.82-0.006,2.506,0.763,2.62,0.333
						c-1.394-0.728-1.807-3.228-0.963-3.892c0.285,0.031,4.319,0.518,5.281,0.84c1.394,0.535-1.897,1.671-0.715,2.13
						c0.035-0.193,0.76-0.488,1.062-0.595c0.869,0.092-0.309,0.631,1.546,0.385c0.253-0.748,3.789-0.264,0.831-0.686
						c1.802-0.361,1.945-0.018,4.079-0.231c-0.72-0.408,1.78-1.75,3.578-2.111c-0.091,0.192,0.34,0.396,0.548,0.488
						c3.727-0.271,5.754-0.142,9.224-0.458c0.336,0.144,2.029,0.197,1.345,0.574c0.487-0.174,0.924-0.461,1.992-0.58
						c2.129,0.43-2.377,0.322-0.729,0.922c0.097-0.437,2.712-0.832,4.212-1.225c-0.527-0.605-3.532,0.183-5.034,0.594
						c-0.09-0.895,2.479-2.078,6.076-2.803c2.867-0.475,1.302,0.467,1.792,0.297c5.435-0.302,4.483-2.01,9.06-1.656
						c1.835,0.449,0.163,1.127,0.59,1.511c-2.337,0.37-3.642-0.126-5.231,0.048l1.981,0.1c-0.732,0.25-2.287,0.535-3.155,0.443
						c1.532,0.327,9.169-0.576,13.38-0.385c0.73-0.241,2.005-0.523,1.386-0.713l-1.32,0.168c-1.245-0.378,2.462-0.803,0.771-0.905
						c1.76-0.455,3.749-0.973,6.276-0.81l0.493,0.635c-0.06-0.188-1.655-0.335-2.354-0.115c1.04-0.32,3.879,0.758,5.004-0.13
						l-1.776-0.396c1.782-0.381,4.004-1.151,6.235-1.002c-1.016-0.625-0.511,0.086-2.111-0.619c1.396,0.892-5.731,0.142-3.492,1.055
						c-1.655-0.821-2.832-0.281-5-0.956c0.075,0.212,0.775,0.386-1.11,0.34c-0.082,0.065-0.278,0.151-0.403,0.202
						c-0.058-0.005-0.078-0.007-0.128-0.012c0.038,0.008,0.066,0.014,0.104,0.021c-0.079,0.035-0.086,0.042,0.039,0.008
						c0.452,0.08,0.819,0.181,0.974,0.295c-0.914,0.489-3.884,0.67-4.873,1c-1.114-0.028,0.449-0.277-0.169-0.465l-1.479,0.48
						c-0.178-0.466-3-0.594-0.4-1.047l-2.357,0.136c-1.404-0.174-3.322-0.153-4.484,0.126c-1.116-0.02-2.75,0.768-1.817,0.307
						l-3.651,0.617l-0.044-0.115c-3.634,0.258-7.396,1.433-11.603,0.975c-1.205,0.234-2.448,0.499-4.496,0.556l-0.436-0.374
						c-1.552,0.299-4.724,0.018-5.353,0.499c-1.776-0.97-7.578,0.427-10.329,0.427l-0.062,0.543
						c-1.886,0.088-3.68,0.354-6.004,0.717l0.172,0.467c-1.997,0.5-5.211,0.047-8.392,0.125c0.21-0.188,1.021-0.161,1.597-0.065
						c-3.834-0.993-8.02,1.028-11.485,0.257c-0.859,0.151-1.482,0.076-2.083-0.059c0.08,0.001,0.15-0.006,0.213-0.02
						c-0.088-0.004-0.219-0.01-0.353-0.016c-0.378-0.091-0.769-0.197-1.188-0.283c0.357,0.125,0.7,0.229,0.999,0.279
						c-0.662-0.007-1.667,0.027-2.655,0.121l-0.406-0.521c-0.08,0.004-0.146,0.006-0.229,0.01c-0.959-0.213-0.783,0.223-0.278,0.619
						c-0.499,0.071-0.957,0.162-1.313,0.275c-0.756-0.844-2.604,0.213-3.635-0.693c-0.682,0.42-5.021,0.121-5.593,1.004
						c-0.027-0.118-0.318-0.187,0.22-0.172c-1.104-0.148-2.209-0.297-3.218-0.084l-0.439-0.668l-2.463,0.771
						c-1.455-0.457-2.057-0.712-0.571-1.15c-3.564,0.621-2.879,0.17-5.911,0.808l0.163-0.414c-1.074-0.029-2.811,0.463-3.443,0.089
						c-1.188-0.436-4.154-0.63-7.598-0.732c-3.443-0.089-7.357-0.181-10.438-0.612c1.174,1.261-2.857-0.611-3.121,0.343
						c-0.354-0.3-1.211-0.482-0.207-0.717c-3.154,0.225-4.729-0.559-6.913,0.208c-0.358-0.302,0.679-0.416,0.358-0.597
						c-0.254,0.059-1.004,0.234-1.33,0.053c-0.318-0.18,0.465-0.235,0.965-0.354c-3.223-0.015-3.553,0.881-3.793,1.723
						c-1.627-0.395-2.442-0.32-3.619,0.246c-0.567-0.271-1.516-0.551,0.484-0.672c-1.123-0.027-6.875-0.33-6.984,0.35
						c-0.354-0.168-1.573-0.033-1.868,0.049c-2.522-0.014-2.747-0.071-5.224,0.02l0.688,0.104c-0.965,0.829-2.056,0.205-4.052,0.325
						l0.056-0.084c-4.594-0.531-1.969,0.285-6.505-0.301l0.26,0.498c-0.387,1.115-4.019-0.455-6.627,0.088l0.957,0.246
						c-1.414,0.441-4.061-1.299-5.51-1.367c-0.318-0.08,0.489-0.176,0.924-0.268c-3.802-0.466-0.458,0.689-3.258,0.979
						c-0.536-0.334,0.623-0.945-1.273-0.922c-0.961-0.246-5.419,1.427-8.039,0.86c0.586,0.25,1.167,0.499-0.123,0.769
						c-1.996,0.195-5.473-0.789-7.186,0.164c-0.255-0.064-0.354-0.133-0.369-0.201c-1.496,0.294-4.887,0.6-5.786,1.115
						c-1.424-1.558-9.418,0.927-9.388-0.683l-4.655,0.056l0.126-0.166c-2.973-0.193-4.04,0.111-5.104,0.463
						c-0.685-0.142-0.175-0.27-0.115-0.353c-4.342-0.539-4.769-0.444-8.475,0.134l-0.348-0.551
						c-1.013,0.234-6.244-1.254-10.562-0.947c0.046-0.057,0.143-0.151,0.489-0.199c-4.868,0.246-11.418-2.363-13.34-0.568
						l-3.222,0.244c4.111,0.441-0.673,0.785,0.999,1.224c-1.626-0.003-4.146-0.875-2.149-0.831l0.305,0.118
						c0.802-0.944-5.097-0.718-4.942-1.388c-4.066-0.225-8.084-0.516-12.037-0.859c-3.96-0.257-7.875-0.409-11.708-0.495
						l0.885,0.788c0,0-0.667-0.02-1.334-0.04c-0.668-0.028-1.331-0.021-1.331-0.021c-0.697-0.162-0.944-0.603,0.956-0.582
						c-1.006-0.445-3.173,0.423-3.227,0.587c-3.71-0.243,1.438-0.935,0.301-0.931l-1.543,0.088l0.349,0.084
						c-1.248,0.343-1.355,0.681-3.631,0.687c-1.441-0.127-0.744-0.464-1.312-0.483c0.003-0.055-0.189-0.076-0.87-0.006l-3.345-0.001
						l1.345,0.587c-1.478,0.332-3.144,0.029-1.592,0.693c-2.279-1.027-12.477-0.145-13.872-0.449
						c-2.068,0.487-4.116,0.52-6.655,0.514c0.633,0.115,1.023,0.798-1.167,0.756c0.774-1.438-4.019-0.54-5.809-1.529
						c1.595,0.648-6.22,0.288-3.719,1.204c-1.829-0.08-0.122-0.53-1.516-0.838c-4.334,0.635-9.592-0.173-14.954,0.116
						c-0.08,0.188,0.826,0.457-0.319,0.757L58.425,20.9c-1.058,0.111-0.953,1.096-2.904,0.486c0.277,0.151,0.69,0.381-0.02,0.453
						c-10.534-0.706-21.483,1.162-32.188-0.341c1.451,0.334,0.487,0.388-0.617,0.423c0.719,0.073-0.011,0.462,0.134,0.712
						l-4.48-0.616c-0.807,0.719-4.793,0.142-5.253,0.821l1.415-0.147c-1.875,0.828,2.655,1.71,2.392,2.731
						c2.099-0.942,5.581,1.228,9.027-0.13c0.767,0.192-0.647,0.34-0.235,0.568c0.872-0.453,1.93-0.564,3.897-0.407l-0.221,0.112
						c5.517-0.213,7.89,0.171,14.096,0.337L43,25.409c1.333,0.042,1.617,0.194,2.243,0.308c1.515-0.792-3.743,0.03-2.365-0.838
						c1.786,0.989,9.395-0.167,10.612,0.973c2.05-0.033-0.613-0.57,1.437-0.604l0.55,0.305l0.509-0.416
						c1.345,0.041,2.032,0.42,2.088,0.687c-0.327-0.025-0.925,0.093-1.274,0.122c1.751,0.337,4.912-0.221,5.513-0.112l-1.974-0.155
						c5.591-0.404,12.419-0.123,17.805-0.865l-0.415-0.229c4.114-0.519,3.308,0.197,7.83-0.094l-0.164,0.06
						c0.901-0.254,2.109-0.396,3.349-0.394c-1.138,0.3,2.161,0.499,0.667,0.835c4.462-0.559,2.204-0.413,5.143-1.352l0.687,0.379
						c1.001-0.375,1.082-0.563,3.341-0.709c-1.849,0.373,1.453,0.571-0.618,1.059c4.757,0.77,7.032-1.005,9.226,0.211
						c2.164-1.131-4.114-0.525-2.897-0.782c-1.027-0.336,1.787-0.849,3.277-0.769c1.517-0.006,2.596,1.344,6.407,1.25
						c-0.379,0.002-0.404,0.085-0.782,0.088c1.43,0.25,2.791-0.432,4.546-0.014c0.973-0.678,2.272-0.006,2.546-0.852l-3.495,0.262
						c1.978-0.238,3.833-1.324,7.097-0.816c-0.254,0.173-1.218,0.361-1.885,0.507c0.957,0.229,1.831-0.147,2.819,0.112
						c-0.141,0.421-1.195,0.445-2.48,0.459c-1.292,0.045-2.815,0.07-3.874,0.412c1.028,0.334,4.011-0.688,2.953,0.244
						c1.53-1.207,3.728,0.178,6.297-0.688l-0.174,0.501c0.406-0.074,1.249-0.301,1.996-0.278l-1.359,0.636
						c2.082-0.53,3.981,0.539,5.971,0.262c-4.157-0.039-0.916-0.619-2.667-1.01c2.581-0.315,3.313,0.043,4.115,0.479
						c0.803,0.424,1.676,0.905,4.556,0.927c-0.781,0.033-2.91-0.446-1.681-0.62c1.091,0.158,2.529,0.422,3.188,0.721
						c3.816,0.084-0.558-0.547,1.082-0.775c1.266,0.68,1.887-0.163,3.577-0.265l-0.021,0.512c4.334,0.638,1.225-0.983,5.123-0.308
						l-1.706,0.591l2.057-0.038l-0.462,0.551c2.253-0.273,2.939-0.111,5.105,0.206c-0.479-0.394,0.353-0.913,2.289-0.778
						c1.295,0.405-0.776,0.428,1.971,0.567c-0.643,0.271-1.352,0.62-2.509,0.058c-0.135,0.155-0.635,0.272-0.772,0.43
						c1.391,0.455,3.563,0.354,4.556,0.427c-0.381-0.049-0.835-0.112-1.064-0.203l4.028-0.399c0.611,0.241,0.103,0.356-0.4,0.47
						c0.809,0.007,1.384-0.185,2.571-0.136c-0.338,0.392-0.297,0.825-1.988,0.891l3.822-0.166c0.236,0.204,1.913,0.635,1.407,0.754
						c2.094,0.39,5.23-0.447,8.004,0.068c0.15-0.07,0.446-0.127,1.044-0.146c2.613,0.303,4.943,0.855,8.094,0.447l1.746,0.826
						c2.458-0.058-2.365-1.049,1.722-1.145c2.893-0.107,1.057,0.686,2.064,0.939c1.459-0.36,3.97-1.112,6.626-0.485
						C198.744,28.633,198.053,28.518,197.229,28.567z M227.396,27.245c-0.573,0.135-1.708,0.521-2.149,0.239
						C225.872,26.867,226.4,27.123,227.396,27.245z M272.889,24.96c-0.435,0.161-1.102,0.063-1.854-0.146
						C271.582,24.784,272.201,24.814,272.889,24.96z M399.672,18.755c-0.023,0.011-0.042,0.017-0.061,0.029
						C398.294,18.672,398.762,18.719,399.672,18.755z M402.391,18.796c0.269-0.089,0.244-0.159,0.124-0.223
						c-0.18,0.142-0.786,0.19-1.479,0.2C401.236,18.895,401.591,18.964,402.391,18.796z M113.455,20.17l0.526,0.124
						C112.798,20.464,113.128,20.325,113.455,20.17z"/>
					<path fill="#8D2020" d="M267.718,25.646c-0.164-0.084-0.21-0.179-0.248-0.274C267.241,25.46,267.236,25.559,267.718,25.646z"/>
					<path fill="#8D2020" d="M178.419,28.074l-0.091-0.012c-0.052,0.026-0.082,0.057-0.099,0.086L178.419,28.074z"/>
					<path fill="#8D2020" d="M361.105,26.711c-0.56-0.023-0.877-0.097-1.091-0.182C359.994,26.653,360.258,26.754,361.105,26.711z"
						/>
					<path fill="#8D2020" d="M416.727,17.238l-1.74,0.188c0.843-0.052,1.146,0.051,1.574,0.118
						C416.518,17.426,416.181,17.264,416.727,17.238z"/>
					<path fill="#8D2020" d="M431.787,20.055c0.251-0.069,0.535-0.021,0.782-0.092l-0.075-0.236
						C431.42,19.771,430.674,19.982,431.787,20.055z"/>
					<path fill="#8D2020" d="M418.374,18.889c0.146,0.426,1.229,0.245,2.442,0.127c-0.073,0.004-0.144,0.01-0.216,0.006
						C420.952,18.408,419.658,18.648,418.374,18.889z"/>
					<path fill="#8D2020" d="M421.098,18.992c0.374-0.035,0.753-0.048,1.117-0.034C422.352,18.718,421.765,18.909,421.098,18.992z"
						/>
					<path fill="#8D2020" d="M405.803,18.282c0.582,0.073,0.329-0.573,0.665-0.42C407.078,17.271,402.668,18.78,405.803,18.282z"/>
					<polygon fill="#8D2020" points="419.381,20.276 418.938,19.758 418.27,20.208 					"/>
					<path fill="#8D2020" d="M409.817,20.189l1.939,0.084c-0.033-0.088,0.211-0.147,0.511-0.197
						C411.076,20.098,409.765,20.034,409.817,20.189z"/>
					<path fill="#8D2020" d="M412.27,20.077c0.62-0.009,1.211-0.04,1.554-0.138C413.486,19.956,412.764,19.997,412.27,20.077z"/>
					<polygon fill="#8D2020" points="416.745,20.52 416.171,20.428 414.807,20.432 					"/>
					<path fill="#8D2020" d="M389.078,21.607l-2.089,0.337c-0.197,0.2,0.385,0.261,1.161,0.12
						C388.642,21.895,389.416,21.756,389.078,21.607z"/>
					<path fill="#8D2020" d="M395.553,22.503c-0.576-0.061-0.624-0.175-0.959-0.321l-0.01,0.662L395.553,22.503z"/>
					<path fill="#8D2020" d="M389.446,23.193c-0.194,0.201-2.998,0.789-0.345,0.516C389.299,23.509,391.388,23.174,389.446,23.193z"
						/>
					<polygon fill="#8D2020" points="357.712,25.127 358.246,25.085 358.093,24.012 					"/>
					<path fill="#8D2020" d="M329.638,28.479c2.525,0.322,0.614-0.652,2.893-0.271c0.595-0.241-1.861-0.311-1.25-0.516
						C329.753,27.922,328.955,27.75,329.638,28.479z"/>
					<path fill="#8D2020" d="M331.279,27.691c0.245-0.037,0.504-0.082,0.778-0.146C331.617,27.602,331.409,27.648,331.279,27.691z"
						/>
					<polygon fill="#8D2020" points="15.351,21.52 13.742,21.325 14.783,21.668 					"/>
					<path fill="#8D2020" d="M12.276,22.381l-0.385-0.682l-0.958,0.643C11.295,22.305,11.999,22.23,12.276,22.381z"/>
					<path fill="#8D2020" d="M231.906,28.421l0.114-0.171c-0.256-0.167-0.63-0.163-1.38-0.156L231.906,28.421z"/>
					<polygon fill="#8D2020" points="210.083,28.932 210.464,28.928 209.729,28.337 					"/>
					<path fill="#8D2020" d="M191.54,29.807c0.753,0.061,1.642-0.031,2.404-0.013C192.287,29.898,191.363,29.004,191.54,29.807z"/>
				</g>
			</g>
		</g>
	</g>
</g>
<g>
	<g>
		<g>
			<g>
				<g>
					<path fill="#8D2020" d="M30.55,495.216c-0.21,0.703,0.282,0.562,0.333,0.689C31.079,494.682,30.431,495.219,30.55,495.216z"/>
					<path fill="#8D2020" d="M31.92,483.216l0.147,0.235c0,0-0.043-0.452-0.084-0.903c-0.04-0.451-0.092-0.902-0.092-0.902
						s0.016,0.393,0.019,0.785C31.916,482.823,31.92,483.216,31.92,483.216z"/>
					<path fill="#8D2020" d="M33.144,472.119c-0.84,0.989-0.205,4.036-0.7,5.988l-0.212,0.307l0.5,0.962
						C32.961,476.956,32.785,473.796,33.144,472.119z"/>
					<path fill="#8D2020" d="M35.118,466.26c-0.31,0.355-0.203-1.303-0.147,1.389c0.038-0.134,0.059-0.172,0.084-0.249
						C35.06,467.158,35.074,466.825,35.118,466.26z"/>
					<path fill="#8D2020" d="M35.054,467.399C35.029,468.581,35.333,466.64,35.054,467.399L35.054,467.399z"/>
					<path fill="#8D2020" d="M35.079,461.95l0.224,1.56c0.196-0.32,0.252-1.7,0.372-1.185
						C35.562,460.728,35.382,461.054,35.079,461.95z"/>
					<path fill="#8D2020" d="M34.556,460.47l0.094,0.804C34.726,461.135,34.755,460.923,34.556,460.47z"/>
					<path fill="#8D2020" d="M34.851,462.981l-0.201-1.708c-0.127,0.222-0.372,0.239,0.07,0.783
						C34.498,461.912,34.707,462.253,34.851,462.981z"/>
					<path fill="#8D2020" d="M34.701,463.942c-0.199,0.864-0.348,1.98-0.548,0.418C34.14,467.323,34.689,466.914,34.701,463.942z"/>
					<path fill="#8D2020" d="M32.398,471.496l-0.299,1.136l0.166,1.015C32.196,473.14,32.648,471.442,32.398,471.496z"/>
					<path fill="#8D2020" d="M35.552,452.307c-0.162-0.097-0.425,0.521-0.631,0.638l0.188,1.141
						C35.228,453.496,35.312,452.386,35.552,452.307z"/>
					<path fill="#8D2020" d="M34.921,452.944l-0.291-1.703C34.611,452.763,34.746,453.041,34.921,452.944z"/>
					<polygon fill="#8D2020" points="33.72,460.178 34.245,462.994 33.722,459.639 					"/>
					<polygon fill="#8D2020" points="35.489,445.791 35.878,446.751 35.285,445.041 					"/>
					<path fill="#8D2020" d="M35.331,441.484c0.326,0.705,0.499-0.99,0.708-0.241c-0.083-1.17-0.373-2.161-0.637-3.05
						C35.56,439.142,35.551,440.161,35.331,441.484z"/>
					<path fill="#8D2020" d="M35.013,436.696c0.086,0.475,0.232,0.964,0.387,1.497C35.316,437.688,35.2,437.193,35.013,436.696z"/>
					<path fill="#8D2020" d="M34.681,448.339c0.094-0.134,0.346-0.391,0.437-1.347l-0.441,0.676
						C34.677,447.872,34.679,448.104,34.681,448.339z"/>
					<path fill="#8D2020" d="M34.662,447.691l0.014-0.023c0-0.727,0-1.229,0-1.444C34.673,446.407,34.669,446.851,34.662,447.691z"
						/>
					<path fill="#8D2020" d="M34.681,448.507c0-0.062,0-0.107,0-0.17C34.638,448.403,34.623,448.442,34.681,448.507z"/>
					<path fill="#8D2020" d="M34.179,455.714c-0.25-1.004-0.514-3.086-0.908-1.068C33.579,455.363,33.804,454.207,34.179,455.714z"
						/>
					<path fill="#8D2020" d="M34.125,449.346l-0.088,1.809c0.119-0.036,0.291-0.364,0.421,0.131L34.125,449.346z"/>
					<polygon fill="#8D2020" points="33.97,448.464 34.125,449.346 34.156,448.675 					"/>
					<path fill="#8D2020" d="M34.67,439.792c-0.217-0.772-0.257-1.623-0.313-2.583c-0.062,1.032-0.079,2.098-0.056,3.11
						C34.448,440.458,34.713,440.897,34.67,439.792z"/>
					<path fill="#8D2020" d="M34.636,443.63c-0.009-0.055-0.021-0.123-0.029-0.174C34.571,443.563,34.56,443.649,34.636,443.63z"/>
					<path fill="#8D2020" d="M34.12,427.77c-0.026,0.051-0.052,0.1-0.079,0.151c0.027,0.013,0.052,0.02,0.079,0.033V427.77z"/>
					<path fill="#8D2020" d="M34.22,440.494c-0.068,0.777,0.053,1.238,0.204,1.677c-0.06-0.578-0.104-1.191-0.123-1.852
						C34.236,440.257,34.193,440.246,34.22,440.494z"/>
					<path fill="#8D2020" d="M34.73,434.065c-0.084,0.404-0.152,0.862-0.213,1.345C34.65,435.013,34.853,434.204,34.73,434.065z"/>
					<path fill="#8D2020" d="M34.726,443.192c0.008,0.038,0.016,0.074,0.023,0.115C34.84,443.052,34.793,443.084,34.726,443.192z"/>
					<path fill="#8D2020" d="M34.726,443.192c-0.074-0.398-0.193-0.709-0.302-1.021c0.048,0.472,0.106,0.907,0.183,1.285
						C34.636,443.359,34.683,443.263,34.726,443.192z"/>
					<path fill="#8D2020" d="M31.15,424.966c0.419,0.131,0.849,2.154,0.438,3.92c0.354,1.721,1.711,0.556,2.451-0.965
						c-0.185-0.05-0.354-0.045-0.642-1.812c-0.217,0.625-0.449,3.948-0.862,2.46c-0.269-2.348,0.103-1.932,0.305-3.077
						c-0.509,0.981-0.807-2.979-1.569-2.457l0.303,2.062C31.455,425.137,31.251,424.391,31.15,424.966z"/>
					<path fill="#8D2020" d="M34.077,431.302l0.071,0.729c0.053-0.834,0.201-1.437,0.508-2.538
						c-0.232-1.208-0.395-1.456-0.536-1.537l0.026,3.596L34.077,431.302z"/>
					<path fill="#8D2020" d="M34.237,435.312c-0.474-0.559-0.714-2.309-1.181-1.221c0.088,2.146,0.422,1.493,0.655,2.771
						c-0.207-3.463,0.282,0.989,0.474-1.522c0.097,0.681,0.137,1.291,0.172,1.869c0.039-0.626,0.092-1.229,0.16-1.799
						c-0.01,0.032-0.018,0.055-0.025,0.081l0.002,0.017l-0.007-0.004c-0.054,0.151-0.087,0.201-0.058,0.032
						c-0.007-0.012-0.01-0.054-0.012-0.071c-0.064-0.021-0.122-0.086-0.177-0.152c0.067-1.006,0.114-0.161,0.177,0.152
						c0.021,0.011,0.045,0.036,0.069,0.039l0.005-0.013l-0.342-3.461C34.103,432.767,34.142,433.684,34.237,435.312z"/>
					<path fill="#8D2020" d="M32.285,452.794c0.04-0.108,0.072-0.104,0.105-0.112C32.332,452.457,32.292,452.372,32.285,452.794z"/>
					<path fill="#8D2020" d="M32.548,451.362c0.066,0.252,0.25,0.461,0.21,1.283c-0.131,0.713-0.219-0.003-0.368,0.035
						c0.125,0.494,0.342,1.73,0.551,0.178l-0.063-0.245c0.146-1.399,0.7-3.207,0.765-2.964
						C33.235,450.063,32.945,450.428,32.548,451.362z"/>
					<path fill="#8D2020" d="M33.312,443.241l-0.293-2.888l-0.36,1.483l0.235-0.082C32.84,443.403,33.125,443.041,33.312,443.241z"
						/>
					<polygon fill="#8D2020" points="34.339,427.435 34.831,427.806 34.112,426.157 					"/>
					<polygon fill="#8D2020" points="34.214,423.698 34.636,423.831 34.369,422.849 					"/>
					<path fill="#8D2020" d="M23.54,212.169l-0.159-0.853C23.437,211.721,23.489,211.98,23.54,212.169z"/>
					<path fill="#8D2020" d="M23.798,218.365l0.213,0.136C23.885,218.226,23.795,218.114,23.798,218.365z"/>
					<path fill="#8D2020" d="M28.687,331.735c0.423-1.218,1.065-2.561,0.588-2.426l-0.469,0.361
						C28.868,330.527,28.799,331.181,28.687,331.735z"/>
					<path fill="#8D2020" d="M27.749,268.544c-0.044,0.116-0.09,0.239-0.136,0.36c0.162,0.302,0.312,0.583,0.449,0.837
						C27.968,269.38,27.862,268.972,27.749,268.544z"/>
					<path fill="#8D2020" d="M25.833,267.667l0.279-1.627C26.013,266.406,25.919,266.929,25.833,267.667z"/>
					<path fill="#8D2020" d="M23.556,178.297l-0.399-1.022C23.05,178.828,23.333,178.159,23.556,178.297z"/>
					<path fill="#8D2020" d="M31.775,385.111c0.087-1.084,0.076-1.933,0.031-2.679C31.664,383.737,31.366,384.807,31.775,385.111z"
						/>
					<path fill="#8D2020" d="M28.532,214.32c-0.106-0.509-0.21-0.723-0.312-0.702C28.322,214.144,28.423,214.437,28.532,214.32z"/>
					<path fill="#8D2020" d="M31.515,379.363c-0.027,0.191-0.035,0.377-0.055,0.571c0.15,0.771,0.285,1.546,0.346,2.498
						C31.913,381.469,31.931,380.375,31.515,379.363z"/>
					<path fill="#8D2020" d="M25.756,56.865c0.019-0.089,0.027-0.196,0.05-0.277C25.744,56.562,25.743,56.686,25.756,56.865z"/>
					<path fill="#8D2020" d="M29.716,21.308c0.035,0.349,0.047,0.918,0.063,1.455C29.806,22.501,29.794,22.062,29.716,21.308z"/>
					<path fill="#8D2020" d="M33.95,408.479C34.033,409.277,34.008,408.603,33.95,408.479L33.95,408.479z"/>
					<path fill="#8D2020" d="M32.273,412.46c-0.057-0.168-0.127-0.294-0.233-0.31C32.153,412.212,32.226,412.319,32.273,412.46z"/>
					<path fill="#8D2020" d="M27.924,371.728c-0.001-0.023-0.002-0.042-0.004-0.069C27.851,371.903,27.865,371.86,27.924,371.728z"
						/>
					<path fill="#8D2020" d="M33.798,409.696c0.047-0.305,0.087-0.655,0.09-1.033C33.867,408.83,33.841,409.144,33.798,409.696z"/>
					<path fill="#8D2020" d="M34.01,409.522c-0.009,0.278-0.016,0.497-0.021,0.705C34.069,410.325,34.114,410.233,34.01,409.522z"/>
					<path fill="#8D2020" d="M33.849,407.365c0.039,0.457,0.045,0.886,0.039,1.298c0.021-0.158,0.043-0.226,0.062-0.185
						C33.929,408.244,33.898,407.914,33.849,407.365z"/>
					<path fill="#8D2020" d="M28.25,122.068c0.013-0.053,0.021-0.113,0.04-0.171C28.083,121.096,28.122,121.448,28.25,122.068z"/>
					<path fill="#8D2020" d="M24.632,310.88c0.003,0.037,0.014,0.059,0.02,0.093c0.007-0.037,0.015-0.084,0.021-0.117L24.632,310.88
						z"/>
					<path fill="#8D2020" d="M24.408,308.013c0.521,1.237,0.423,1.927,0.264,2.843l1.366-0.889L24.408,308.013z"/>
					<path fill="#8D2020" d="M23.135,197.296l-0.428,2.028c-0.664-2.46-0.417-4.243-1.012-2.335
						c1.442,0.303,0.088,7.928,1.538,8.189l-0.242,1.347c-0.003-0.384-0.092-0.444-0.094-0.824
						c-0.571,2.626,1.131,1.909,1.078,5.259c-0.057,1.17-0.228,1.998-0.436,1.209l0.477,2.583c0.006,0.759-0.252,0.59-0.26-0.166
						l0.299,3.941l-0.043-0.026c0.252,0.542,0.66,1.785,0.838,2.394c-0.158,1.009-0.176-0.489-0.343-0.224l0.451,2.146
						c-0.331,0.906-0.778-0.867-0.795-2.367c-1.341,2.115,0.447,1.775-0.185,6.191l-0.28-2.033
						c-0.754,1.364-0.382,2.941-0.782,5.275c0.24-0.559,1.062-4.692,1.534-2.363c-0.077,0.669-0.087,1.544,0.263,2.798
						c-0.511,0.038-0.326,1.269-0.224,2.816l-0.685-0.073c0.275,1.665,0.614,1.517,0.967,2.488c0.022,1.871-0.484,2.278-0.906,2.734
						c0.033,2.991,0.745-2.096,1.041,1.438c-0.161,2.496,0.275,4.228,0.678,7.201c-0.215,1.75-0.418-0.295-0.605,0.334l0.559,1.533
						c-0.009,0.379-0.177,0.26-0.261,0.2c0.224,1.298,0.68,0.093,0.886,2.138c0.754,0.541-1.047,4.226-0.169,6.748
						c-0.187,0.627-0.419-0.297-0.681-0.103c0.597,3.472,0.438,2.976,1.22,5.83l-0.419,2.436c0.49-1.788,1.119,0.495,1.637,2.503
						c0.239-0.635,0.449-1.178,0.547-1.543l0.4,3.205c-0.107,0.387-0.344,0.062-0.633-0.464c0.058,0.22,0.115,0.427,0.169,0.588
						c-0.257,1.144-0.634,0.548-1.025-0.272c0.138-0.389,0.272-0.774,0.406-1.151c-0.421-0.792-0.886-1.531-1.282-1.367
						c0.081,0.208,0.152,0.607,0.195,1.048c-0.114-0.207-0.217-0.339-0.283-0.242c-0.07,0.106,0.083,0.44,0.262,0.965l-0.749,0.723
						l0.304,0.178c0,0-0.029,0.262-0.073,0.652c-0.052,0.393-0.122,0.913-0.191,1.436c-0.139,1.045-0.278,2.088-0.278,2.088
						c0.703,2.996,1.772,5.615,1.99,10.377c-0.531-1.189-0.902-0.271-1.558-0.349c0.722-1.282-0.224-3.683-0.032-6.14
						c-0.099,1.283-0.406,0.996-0.51,0.668l0.546,4.396c-0.536-0.108-0.422,0.924-0.667,2.064c1.08-0.844,0.643,3.286,0.934,5.08
						c-0.358,0.102-0.715-0.336-0.586-2.512c-0.848,2.383,1.188,3.138,0.461,5.479c0-0.532,0.062-0.817-0.115-1.032
						c0.291,1.252-0.021,4.282-0.316,3.559l0.003-0.531c-0.22,3.525-0.438,10.746,0.453,11.311
						c-0.118,0.029-1.067-0.507-1.242-0.727l2.774,6.43c-0.751-0.589-2.686,1.461-3.001-1.484c-0.146,0.836-0.317,1.869-0.117,3.652
						c0.134-0.567,1.179-1.38,1.218-0.593c-0.952,2.113-0.523,1.474-1.369,4.09c0.202-0.851,1.377,0.162,1.282,1.521
						c-0.173-0.222-1.204,0.055-1.31-0.448l1.052,3.441c-0.181-0.855-1.004-0.201-1.373,0.538c0.233-0.351-0.099,2.952-0.006,3.868
						l0.312-1.438c-0.278,3.854,1.583,3.854,1.425,7.646c-0.235-0.46-1.489-1.157-1.688,0.786c0.313,0.448,0.962,1.438,1.733,2.721
						c0.752,1.285,1.492,2.865,1.771,4.529l-0.333,0.648l0.464,2.551c-0.96-1.554-3.013-6.02-3.83-8.503
						c-0.24,1.443-0.402,0.403-0.313,2.563c-0.308,0.77-0.527-1.173-0.563-1.812l-0.082,5.048c0.708-0.239,0.815,3.834,1.404,3.619
						l-0.88-5.443c0.707-0.228,2.106,3.112,2.071,6.653c-0.26,0.915-1.287-0.623-1.521-0.542c0.128,0.227,0.268,1.067,0.354,1.893
						c0.095,0.823,0.174,1.629,0.093,1.797l-0.476-1.486c-0.146,1.991,1.146,3.173,0.615,5.583c0.006,0.82-0.763,2.506-0.333,2.62
						c0.728-1.394,3.228-1.807,3.892-0.963c-0.031,0.285-0.518,4.319-0.84,5.281c-0.535,1.394-1.671-1.897-2.13-0.715
						c0.193,0.035,0.488,0.76,0.595,1.062c-0.092,0.869-0.631-0.309-0.385,1.546c0.748,0.253,0.264,3.789,0.686,0.831
						c0.361,1.802,0.018,1.945,0.231,4.079c0.408-0.72,1.75,1.78,2.111,3.578c-0.192-0.091-0.396,0.34-0.488,0.548
						c0.271,3.727,0.142,5.754,0.458,9.224c-0.144,0.336-0.197,2.029-0.574,1.345c0.174,0.487,0.461,0.924,0.58,1.992
						c-0.43,2.129-0.322-2.377-0.922-0.729c0.437,0.097,0.832,2.712,1.225,4.212c0.605-0.527-0.183-3.532-0.594-5.034
						c0.895-0.09,2.078,2.479,2.803,6.076c0.475,2.867-0.467,1.302-0.297,1.792c0.302,5.435,2.01,4.483,1.656,9.06
						c-0.449,1.835-1.127,0.163-1.511,0.59c-0.37-2.337,0.126-3.642-0.048-5.231l-0.1,1.981c-0.25-0.732-0.535-2.287-0.443-3.155
						c-0.327,1.532,0.576,9.169,0.385,13.38c0.241,0.73,0.523,2.005,0.713,1.386l-0.168-1.32c0.378-1.245,0.803,2.462,0.905,0.771
						c0.455,1.76,0.973,3.749,0.81,6.276l-0.635,0.493c0.188-0.06,0.335-1.655,0.115-2.354c0.32,1.04-0.758,3.879,0.13,5.004
						l0.396-1.776c0.381,1.782,1.151,4.004,1.002,6.235c0.625-1.016-0.086-0.511,0.619-2.111c-0.892,1.396-0.142-5.731-1.055-3.492
						c0.821-1.655,0.281-2.832,0.956-5c-0.212,0.075-0.386,0.775-0.34-1.11c-0.065-0.082-0.151-0.278-0.202-0.403
						c0.005-0.058,0.007-0.078,0.012-0.128c-0.008,0.038-0.014,0.066-0.021,0.104c-0.035-0.079-0.042-0.086-0.008,0.039
						c-0.08,0.452-0.181,0.819-0.295,0.974c-0.489-0.914-0.67-3.884-1-4.873c0.028-1.114,0.277,0.449,0.465-0.169l-0.48-1.479
						c0.466-0.178,0.594-3,1.047-0.4l-0.136-2.357c0.174-1.404,0.153-3.322-0.126-4.484c0.02-1.116-0.768-2.75-0.307-1.817
						l-0.617-3.651l0.115-0.044c-0.258-3.634-1.433-7.396-0.975-11.603c-0.234-1.205-0.499-2.448-0.556-4.496l0.374-0.436
						c-0.299-1.552-0.018-4.724-0.499-5.353c0.97-1.776-0.427-7.578-0.427-10.329l-0.543-0.062c-0.088-1.886-0.354-3.68-0.717-6.004
						l-0.467,0.172c-0.5-1.997-0.047-5.211-0.125-8.392c0.188,0.21,0.161,1.021,0.065,1.597c0.993-3.834-1.028-8.02-0.257-11.485
						c-0.151-0.859-0.076-1.482,0.059-2.083c-0.001,0.08,0.006,0.15,0.02,0.213c0.004-0.088,0.01-0.219,0.016-0.353
						c0.091-0.378,0.197-0.769,0.283-1.188c-0.125,0.357-0.229,0.7-0.279,0.999c0.007-0.662-0.027-1.667-0.121-2.655l0.521-0.406
						c-0.004-0.08-0.006-0.146-0.01-0.229c0.213-0.959-0.223-0.783-0.619-0.278c-0.071-0.499-0.162-0.957-0.275-1.313
						c0.844-0.756-0.213-2.604,0.693-3.635c-0.42-0.682-0.121-5.021-1.004-5.593c0.118-0.027,0.187-0.318,0.172,0.22
						c0.148-1.104,0.297-2.209,0.084-3.218l0.668-0.439l-0.771-2.463c0.457-1.455,0.712-2.057,1.15-0.571
						c-0.621-3.564-0.17-2.879-0.808-5.911l0.414,0.163c0.029-1.074-0.463-2.811-0.089-3.443c0.436-1.188,0.63-4.154,0.732-7.598
						c0.089-3.443,0.181-7.357,0.612-10.438c-1.261,1.174,0.611-2.857-0.343-3.121c0.3-0.354,0.482-1.211,0.717-0.207
						c-0.225-3.154,0.559-4.729-0.208-6.913c0.302-0.358,0.416,0.679,0.597,0.358c-0.059-0.254-0.234-1.004-0.053-1.33
						c0.18-0.318,0.235,0.465,0.354,0.965c0.015-3.223-0.881-3.553-1.723-3.793c0.395-1.627,0.32-2.442-0.246-3.619
						c0.271-0.567,0.551-1.516,0.672,0.484c0.027-1.123,0.33-6.875-0.35-6.984c0.168-0.354,0.033-1.573-0.049-1.868
						c0.014-2.522,0.071-2.747-0.02-5.224l-0.104,0.688c-0.829-0.965-0.205-2.056-0.325-4.052l0.084,0.056
						c0.531-4.594-0.285-1.969,0.301-6.505l-0.498,0.26c-1.115-0.387,0.455-4.019-0.088-6.627l-0.246,0.957
						c-0.441-1.414,1.299-4.062,1.367-5.51c0.08-0.318,0.176,0.488,0.268,0.924c0.466-3.802-0.689-0.458-0.979-3.258
						c0.334-0.536,0.945,0.623,0.922-1.273c0.246-0.961-1.427-5.419-0.86-8.039c-0.25,0.586-0.499,1.167-0.769-0.123
						c-0.195-1.996,0.789-5.473-0.164-7.186c0.064-0.255,0.133-0.354,0.201-0.369c-0.294-1.496-0.6-4.887-1.115-5.786
						c1.558-1.424-0.927-9.418,0.683-9.388l-0.056-4.655l0.166,0.126c0.193-2.973-0.111-4.04-0.463-5.104
						c0.142-0.686,0.27-0.176,0.353-0.115c0.539-4.342,0.444-4.77-0.134-8.476l0.551-0.348c-0.234-1.013,1.254-6.244,0.947-10.562
						c0.057,0.046,0.151,0.143,0.199,0.488c-0.246-4.868,2.363-11.418,0.568-13.34l-0.244-3.222
						c-0.441,4.11-0.785-0.673-1.224,0.999c0.003-1.626,0.875-4.146,0.831-2.149l-0.118,0.305c0.944,0.803,0.718-5.097,1.388-4.941
						c0.225-4.066,0.516-8.084,0.859-12.037c0.257-3.96,0.409-7.875,0.495-11.708l-0.788,0.885c0,0,0.02-0.667,0.04-1.334
						c0.028-0.668,0.021-1.331,0.021-1.331c0.162-0.696,0.603-0.943,0.582,0.956c0.445-1.006-0.423-3.173-0.587-3.227
						c0.243-3.71,0.935,1.438,0.931,0.301l-0.088-1.543l-0.084,0.349c-0.343-1.248-0.681-1.354-0.687-3.631
						c0.127-1.44,0.464-0.744,0.483-1.312c0.055,0.003,0.076-0.189,0.006-0.87l0.001-3.345l-0.587,1.345
						c-0.332-1.479-0.029-3.145-0.693-1.592c1.027-2.279,0.145-12.478,0.449-13.872c-0.487-2.068-0.52-4.116-0.514-6.655
						c-0.115,0.633-0.798,1.023-0.756-1.167c1.438,0.774,0.54-4.019,1.529-5.809c-0.648,1.595-0.288-6.221-1.204-3.72
						c0.08-1.829,0.53-0.122,0.838-1.516c-0.635-4.334,0.173-9.592-0.116-14.954c-0.188-0.08-0.457,0.826-0.757-0.319l0.878-2.854
						c-0.111-1.059-1.096-0.953-0.486-2.904c-0.151,0.277-0.381,0.69-0.453-0.02c0.706-10.534-1.162-21.483,0.341-32.188
						c-0.334,1.451-0.388,0.487-0.423-0.617c-0.073,0.72-0.462-0.011-0.712,0.135l0.616-4.48c-0.719-0.807-0.142-4.793-0.821-5.253
						l0.147,1.415c-0.828-1.875-1.71,2.655-2.731,2.392c0.942,2.1-1.228,5.581,0.13,9.027c-0.192,0.767-0.34-0.647-0.568-0.235
						c0.453,0.872,0.564,1.931,0.407,3.897l-0.112-0.221c0.213,5.517-0.171,7.89-0.337,14.096l0.494-0.468
						c-0.042,1.333-0.194,1.616-0.308,2.242c0.792,1.516-0.03-3.742,0.838-2.364c-0.989,1.786,0.167,9.395-0.973,10.611
						c0.033,2.051,0.57-0.612,0.604,1.438l-0.305,0.55l0.416,0.509c-0.041,1.346-0.42,2.032-0.687,2.088
						c0.025-0.326-0.093-0.925-0.122-1.273c-0.337,1.751,0.221,4.912,0.112,5.513l0.155-1.974
						c0.404,5.591,0.123,12.419,0.865,17.805l0.229-0.415c0.519,4.114-0.197,3.309,0.094,7.83l-0.06-0.164
						c0.254,0.901,0.396,2.109,0.394,3.349c-0.3-1.138-0.499,2.161-0.835,0.668c0.559,4.462,0.413,2.203,1.352,5.143l-0.379,0.687
						c0.375,1.001,0.563,1.082,0.709,3.342c-0.373-1.85-0.571,1.452-1.059-0.618c-0.77,4.757,1.005,7.032-0.211,9.226
						c1.131,2.164,0.525-4.114,0.782-2.896c0.336-1.027,0.849,1.787,0.769,3.276c0.006,1.518-1.344,2.597-1.25,6.407
						c-0.002-0.379-0.085-0.404-0.088-0.782c-0.25,1.431,0.432,2.791,0.014,4.546c0.678,0.974,0.006,2.272,0.852,2.547l-0.262-3.495
						c0.238,1.978,1.324,3.833,0.816,7.097c-0.173-0.254-0.361-1.218-0.507-1.885c-0.229,0.957,0.147,1.831-0.112,2.818
						c-0.421-0.141-0.445-1.194-0.459-2.479c-0.045-1.292-0.07-2.815-0.412-3.874c-0.334,1.028,0.688,4.011-0.244,2.953
						c1.207,1.529-0.178,3.728,0.688,6.297l-0.501-0.174c0.074,0.405,0.301,1.249,0.278,1.996l-0.636-1.359
						c0.53,2.082-0.539,3.981-0.262,5.971c0.039-4.156,0.619-0.916,1.01-2.667c0.315,2.581-0.043,3.313-0.479,4.115
						c-0.424,0.803-0.905,1.676-0.927,4.556c-0.033-0.78,0.446-2.909,0.62-1.681c-0.158,1.091-0.422,2.529-0.721,3.188
						c-0.084,3.815,0.547-0.559,0.775,1.081c-0.68,1.267,0.163,1.888,0.265,3.577l-0.512-0.021
						c-0.638,4.334,0.983,1.225,0.308,5.123l-0.591-1.706l0.038,2.057l-0.551-0.462c0.273,2.253,0.111,2.939-0.206,5.105
						c0.394-0.479,0.913,0.353,0.778,2.289c-0.405,1.295-0.428-0.776-0.567,1.971c-0.271-0.644-0.62-1.353-0.058-2.509
						c-0.155-0.136-0.272-0.636-0.43-0.772c-0.455,1.392-0.354,3.563-0.427,4.556c0.049-0.381,0.112-0.835,0.203-1.063l0.399,4.028
						c-0.241,0.61-0.356,0.103-0.47-0.4c-0.007,0.809,0.185,1.384,0.136,2.571c-0.392-0.338-0.825-0.297-0.891-1.988l0.166,3.822
						c-0.204,0.235-0.635,1.913-0.754,1.407c-0.39,2.094,0.447,5.23-0.068,8.004c0.07,0.149,0.127,0.445,0.146,1.044
						c-0.303,2.612-0.855,4.942-0.447,8.094l-0.826,1.746c0.058,2.458,1.049-2.365,1.145,1.722c0.107,2.894-0.686,1.058-0.939,2.064
						c0.36,1.459,1.112,3.97,0.485,6.626C23.07,198.812,23.185,198.12,23.135,197.296z M24.458,227.463
						c-0.135-0.572-0.521-1.708-0.239-2.148C24.835,225.939,24.58,226.467,24.458,227.463z M26.743,272.956
						c-0.161-0.435-0.063-1.102,0.146-1.854C26.918,271.649,26.888,272.269,26.743,272.956z M32.948,399.739
						c-0.011-0.023-0.017-0.042-0.029-0.061C33.031,398.361,32.984,398.829,32.948,399.739z M32.907,402.458
						c0.089,0.269,0.159,0.244,0.223,0.124c-0.142-0.18-0.19-0.786-0.2-1.479C32.808,401.304,32.739,401.658,32.907,402.458z
						 M31.533,113.522l-0.124,0.525C31.239,112.865,31.377,113.195,31.533,113.522z"/>
					<path fill="#8D2020" d="M26.056,267.785c0.084-0.164,0.179-0.21,0.274-0.248C26.243,267.309,26.144,267.304,26.056,267.785z"/>
					<path fill="#8D2020" d="M23.628,178.486l0.012-0.091c-0.026-0.053-0.057-0.082-0.086-0.1L23.628,178.486z"/>
					<path fill="#8D2020" d="M24.992,361.173c0.023-0.56,0.097-0.877,0.182-1.091C25.049,360.062,24.949,360.325,24.992,361.173z"/>
					<path fill="#8D2020" d="M34.464,416.794l-0.188-1.74c0.052,0.843-0.051,1.146-0.118,1.574
						C34.277,416.585,34.439,416.248,34.464,416.794z"/>
					<path fill="#8D2020" d="M31.648,431.854c0.069,0.251,0.021,0.535,0.092,0.782l0.236-0.075
						C31.931,431.487,31.72,430.741,31.648,431.854z"/>
					<path fill="#8D2020" d="M32.814,418.441c-0.426,0.146-0.245,1.229-0.127,2.442c-0.004-0.073-0.01-0.144-0.006-0.216
						C33.294,421.02,33.054,419.726,32.814,418.441z"/>
					<path fill="#8D2020" d="M32.71,421.165c0.035,0.374,0.048,0.753,0.034,1.117C32.985,422.419,32.793,421.832,32.71,421.165z"/>
					<path fill="#8D2020" d="M33.42,405.87c-0.073,0.582,0.573,0.329,0.42,0.665C34.431,407.146,32.922,402.735,33.42,405.87z"/>
					<polygon fill="#8D2020" points="31.426,419.448 31.945,419.005 31.495,418.337 					"/>
					<path fill="#8D2020" d="M31.513,409.885l-0.084,1.939c0.088-0.033,0.147,0.211,0.197,0.511
						C31.605,411.144,31.668,409.832,31.513,409.885z"/>
					<path fill="#8D2020" d="M31.625,412.337c0.009,0.62,0.04,1.211,0.138,1.554C31.747,413.554,31.706,412.831,31.625,412.337z"/>
					<polygon fill="#8D2020" points="31.183,416.812 31.275,416.238 31.271,414.874 					"/>
					<path fill="#8D2020" d="M30.095,389.146l-0.337-2.089c-0.2-0.197-0.261,0.385-0.12,1.161
						C29.808,388.709,29.947,389.483,30.095,389.146z"/>
					<path fill="#8D2020" d="M29.2,395.62c0.061-0.576,0.175-0.624,0.321-0.959l-0.662-0.01L29.2,395.62z"/>
					<path fill="#8D2020" d="M28.509,389.514c-0.201-0.194-0.789-2.998-0.516-0.345C28.194,389.366,28.529,391.455,28.509,389.514z"
						/>
					<polygon fill="#8D2020" points="26.576,357.779 26.618,358.313 27.691,358.16 					"/>
					<path fill="#8D2020" d="M23.224,329.705c-0.322,2.525,0.652,0.614,0.271,2.893c0.241,0.595,0.311-1.861,0.516-1.25
						C23.781,329.82,23.953,329.022,23.224,329.705z"/>
					<path fill="#8D2020" d="M24.011,331.347c0.037,0.245,0.082,0.504,0.146,0.778C24.101,331.685,24.054,331.477,24.011,331.347z"
						/>
					<polygon fill="#8D2020" points="30.183,15.418 30.377,13.81 30.035,14.851 					"/>
					<path fill="#8D2020" d="M29.322,12.343l0.682-0.385L29.361,11C29.398,11.362,29.472,12.066,29.322,12.343z"/>
					<path fill="#8D2020" d="M23.282,231.974l0.171,0.113c0.167-0.256,0.163-0.63,0.156-1.38L23.282,231.974z"/>
					<polygon fill="#8D2020" points="22.771,210.15 22.775,210.531 23.366,209.796 					"/>
					<path fill="#8D2020" d="M21.896,191.607c-0.061,0.753,0.031,1.642,0.013,2.403C21.804,192.354,22.699,191.431,21.896,191.607z"
						/>
				</g>
			</g>
		</g>
	</g>
</g>
<g>
	<g>
		<g>
			<g>
				<g>
					<path fill="#8D2020" d="M472.111,495.216c-0.211,0.703,0.281,0.562,0.332,0.689
						C472.639,494.682,471.992,495.219,472.111,495.216z"/>
					<path fill="#8D2020" d="M473.48,483.216l0.148,0.235c0,0-0.043-0.452-0.084-0.903s-0.092-0.902-0.092-0.902
						s0.016,0.393,0.018,0.785C473.477,482.823,473.48,483.216,473.48,483.216z"/>
					<path fill="#8D2020" d="M474.705,472.119c-0.84,0.989-0.205,4.036-0.701,5.988l-0.211,0.307l0.5,0.962
						C474.521,476.956,474.346,473.796,474.705,472.119z"/>
					<path fill="#8D2020" d="M476.678,466.26c-0.309,0.355-0.203-1.303-0.146,1.389c0.037-0.134,0.059-0.172,0.084-0.249
						C476.621,467.158,476.635,466.825,476.678,466.26z"/>
					<path fill="#8D2020" d="M476.615,467.399C476.59,468.581,476.893,466.64,476.615,467.399L476.615,467.399z"/>
					<path fill="#8D2020" d="M476.639,461.95l0.225,1.56c0.195-0.32,0.252-1.7,0.371-1.185
						C477.123,460.728,476.943,461.054,476.639,461.95z"/>
					<path fill="#8D2020" d="M476.117,460.47l0.094,0.804C476.287,461.135,476.316,460.923,476.117,460.47z"/>
					<path fill="#8D2020" d="M476.412,462.981l-0.201-1.708c-0.127,0.222-0.373,0.239,0.07,0.783
						C476.059,461.912,476.268,462.253,476.412,462.981z"/>
					<path fill="#8D2020" d="M476.262,463.942c-0.199,0.864-0.348,1.98-0.549,0.418C475.701,467.323,476.25,466.914,476.262,463.942
						z"/>
					<path fill="#8D2020" d="M473.959,471.496l-0.299,1.136l0.166,1.015C473.756,473.14,474.209,471.442,473.959,471.496z"/>
					<path fill="#8D2020" d="M477.113,452.307c-0.162-0.097-0.426,0.521-0.631,0.638l0.188,1.141
						C476.789,453.496,476.873,452.386,477.113,452.307z"/>
					<path fill="#8D2020" d="M476.482,452.944l-0.291-1.703C476.172,452.763,476.307,453.041,476.482,452.944z"/>
					<polygon fill="#8D2020" points="475.281,460.178 475.805,462.994 475.283,459.639 					"/>
					<polygon fill="#8D2020" points="477.049,445.791 477.439,446.751 476.846,445.041 					"/>
					<path fill="#8D2020" d="M476.891,441.484c0.326,0.705,0.5-0.99,0.709-0.241c-0.084-1.17-0.373-2.161-0.637-3.05
						C477.121,439.142,477.111,440.161,476.891,441.484z"/>
					<path fill="#8D2020" d="M476.574,436.696c0.086,0.475,0.232,0.964,0.387,1.497C476.877,437.688,476.76,437.193,476.574,436.696
						z"/>
					<path fill="#8D2020" d="M476.242,448.339c0.094-0.134,0.346-0.391,0.436-1.347l-0.441,0.676
						C476.238,447.872,476.24,448.104,476.242,448.339z"/>
					<path fill="#8D2020" d="M476.223,447.691l0.014-0.023c0-0.727,0-1.229,0-1.444C476.234,446.407,476.23,446.851,476.223,447.691
						z"/>
					<path fill="#8D2020" d="M476.242,448.507c0-0.062,0-0.107,0-0.17C476.199,448.403,476.184,448.442,476.242,448.507z"/>
					<path fill="#8D2020" d="M475.74,455.714c-0.25-1.004-0.514-3.086-0.908-1.068C475.139,455.363,475.365,454.207,475.74,455.714z
						"/>
					<path fill="#8D2020" d="M475.686,449.346l-0.088,1.809c0.119-0.036,0.291-0.364,0.42,0.131L475.686,449.346z"/>
					<polygon fill="#8D2020" points="475.531,448.464 475.686,449.346 475.717,448.675 					"/>
					<path fill="#8D2020" d="M476.23,439.792c-0.217-0.772-0.256-1.623-0.312-2.583c-0.062,1.032-0.08,2.098-0.057,3.11
						C476.008,440.458,476.273,440.897,476.23,439.792z"/>
					<path fill="#8D2020" d="M476.197,443.63c-0.01-0.055-0.021-0.123-0.029-0.174C476.131,443.563,476.121,443.649,476.197,443.63z
						"/>
					<path fill="#8D2020" d="M475.68,427.77c-0.025,0.051-0.051,0.1-0.078,0.151c0.027,0.013,0.051,0.02,0.078,0.033V427.77z"/>
					<path fill="#8D2020" d="M475.781,440.494c-0.068,0.777,0.053,1.238,0.203,1.677c-0.059-0.578-0.104-1.191-0.123-1.852
						C475.797,440.257,475.754,440.246,475.781,440.494z"/>
					<path fill="#8D2020" d="M476.291,434.065c-0.084,0.404-0.152,0.862-0.213,1.345
						C476.211,435.013,476.414,434.204,476.291,434.065z"/>
					<path fill="#8D2020" d="M476.287,443.192c0.008,0.038,0.016,0.074,0.023,0.115C476.4,443.052,476.354,443.084,476.287,443.192z
						"/>
					<path fill="#8D2020" d="M476.287,443.192c-0.074-0.398-0.193-0.709-0.303-1.021c0.049,0.472,0.107,0.907,0.184,1.285
						C476.197,443.359,476.244,443.263,476.287,443.192z"/>
					<path fill="#8D2020" d="M472.711,424.966c0.418,0.131,0.848,2.154,0.438,3.92c0.355,1.721,1.711,0.556,2.451-0.965
						c-0.184-0.05-0.354-0.045-0.641-1.812c-0.217,0.625-0.449,3.948-0.863,2.46c-0.268-2.348,0.104-1.932,0.305-3.077
						c-0.508,0.981-0.807-2.979-1.568-2.457l0.303,2.062C473.016,425.137,472.812,424.391,472.711,424.966z"/>
					<path fill="#8D2020" d="M475.637,431.302l0.072,0.729c0.053-0.834,0.201-1.437,0.508-2.538
						c-0.232-1.208-0.395-1.456-0.537-1.537l0.027,3.596L475.637,431.302z"/>
					<path fill="#8D2020" d="M475.797,435.312c-0.473-0.559-0.713-2.309-1.18-1.221c0.088,2.146,0.422,1.493,0.654,2.771
						c-0.207-3.463,0.283,0.989,0.475-1.522c0.096,0.681,0.137,1.291,0.172,1.869c0.039-0.626,0.092-1.229,0.16-1.799
						c-0.01,0.032-0.018,0.055-0.025,0.081l0.002,0.017l-0.008-0.004c-0.053,0.151-0.086,0.201-0.057,0.032
						c-0.008-0.012-0.01-0.054-0.012-0.071c-0.064-0.021-0.123-0.086-0.178-0.152c0.068-1.006,0.115-0.161,0.178,0.152
						c0.021,0.011,0.045,0.036,0.068,0.039l0.006-0.013l-0.342-3.461C475.664,432.767,475.703,433.684,475.797,435.312z"/>
					<path fill="#8D2020" d="M473.846,452.794c0.039-0.108,0.072-0.104,0.105-0.112
						C473.893,452.457,473.854,452.372,473.846,452.794z"/>
					<path fill="#8D2020" d="M474.109,451.362c0.066,0.252,0.25,0.461,0.209,1.283c-0.131,0.713-0.219-0.003-0.367,0.035
						c0.125,0.494,0.342,1.73,0.551,0.178l-0.064-0.245c0.146-1.399,0.701-3.207,0.766-2.964
						C474.795,450.063,474.506,450.428,474.109,451.362z"/>
					<path fill="#8D2020" d="M474.873,443.241l-0.293-2.888l-0.361,1.483l0.236-0.082
						C474.4,443.403,474.686,443.041,474.873,443.241z"/>
					<polygon fill="#8D2020" points="475.9,427.435 476.391,427.806 475.672,426.157 					"/>
					<polygon fill="#8D2020" points="475.775,423.698 476.197,423.831 475.93,422.849 					"/>
					<path fill="#8D2020" d="M465.1,212.169l-0.158-0.853C464.998,211.721,465.049,211.98,465.1,212.169z"/>
					<path fill="#8D2020" d="M465.359,218.365l0.213,0.136C465.445,218.226,465.355,218.114,465.359,218.365z"/>
					<path fill="#8D2020" d="M470.248,331.735c0.422-1.218,1.064-2.561,0.588-2.426l-0.469,0.361
						C470.428,330.527,470.359,331.181,470.248,331.735z"/>
					<path fill="#8D2020" d="M469.309,268.544c-0.043,0.116-0.09,0.239-0.135,0.36c0.162,0.302,0.312,0.583,0.449,0.837
						C469.529,269.38,469.422,268.972,469.309,268.544z"/>
					<path fill="#8D2020" d="M467.395,267.667l0.279-1.627C467.574,266.406,467.48,266.929,467.395,267.667z"/>
					<path fill="#8D2020" d="M465.117,178.297l-0.4-1.022C464.611,178.828,464.895,178.159,465.117,178.297z"/>
					<path fill="#8D2020" d="M473.336,385.111c0.086-1.084,0.076-1.933,0.031-2.679
						C473.225,383.737,472.926,384.807,473.336,385.111z"/>
					<path fill="#8D2020" d="M470.092,214.32c-0.105-0.509-0.209-0.723-0.311-0.702C469.883,214.144,469.984,214.437,470.092,214.32
						z"/>
					<path fill="#8D2020" d="M473.076,379.363c-0.027,0.191-0.035,0.377-0.055,0.571c0.15,0.771,0.285,1.546,0.346,2.498
						C473.473,381.469,473.492,380.375,473.076,379.363z"/>
					<path fill="#8D2020" d="M467.316,56.865c0.02-0.089,0.027-0.196,0.051-0.277C467.305,56.562,467.303,56.686,467.316,56.865z"/>
					<path fill="#8D2020" d="M471.277,21.308c0.035,0.349,0.047,0.918,0.062,1.455C471.367,22.501,471.355,22.062,471.277,21.308z"
						/>
					<path fill="#8D2020" d="M475.51,408.479C475.594,409.277,475.568,408.603,475.51,408.479L475.51,408.479z"/>
					<path fill="#8D2020" d="M473.834,412.46c-0.057-0.168-0.127-0.294-0.234-0.31C473.713,412.212,473.787,412.319,473.834,412.46z
						"/>
					<path fill="#8D2020" d="M469.484,371.728c0-0.023-0.002-0.042-0.004-0.069C469.412,371.903,469.426,371.86,469.484,371.728z"/>
					<path fill="#8D2020" d="M475.359,409.696c0.047-0.305,0.086-0.655,0.09-1.033C475.428,408.83,475.402,409.144,475.359,409.696z
						"/>
					<path fill="#8D2020" d="M475.57,409.522c-0.008,0.278-0.016,0.497-0.021,0.705C475.629,410.325,475.674,410.233,475.57,409.522
						z"/>
					<path fill="#8D2020" d="M475.41,407.365c0.039,0.457,0.045,0.886,0.039,1.298c0.021-0.158,0.043-0.226,0.061-0.185
						C475.49,408.244,475.459,407.914,475.41,407.365z"/>
					<path fill="#8D2020" d="M469.811,122.068c0.014-0.053,0.021-0.113,0.041-0.171
						C469.645,121.096,469.682,121.448,469.811,122.068z"/>
					<path fill="#8D2020" d="M466.193,310.88c0.002,0.037,0.014,0.059,0.02,0.093c0.006-0.037,0.014-0.084,0.02-0.117
						L466.193,310.88z"/>
					<path fill="#8D2020" d="M465.969,308.013c0.521,1.237,0.422,1.927,0.264,2.843l1.365-0.889L465.969,308.013z"/>
					<path fill="#8D2020" d="M464.695,197.296l-0.428,2.028c-0.664-2.46-0.416-4.243-1.012-2.335
						c1.443,0.303,0.088,7.928,1.539,8.189l-0.242,1.347c-0.004-0.384-0.092-0.444-0.094-0.824
						c-0.572,2.626,1.131,1.909,1.078,5.259c-0.057,1.17-0.229,1.998-0.436,1.209l0.477,2.583c0.006,0.759-0.252,0.59-0.26-0.166
						l0.299,3.941l-0.043-0.026c0.252,0.542,0.66,1.785,0.838,2.394c-0.158,1.009-0.176-0.489-0.344-0.224l0.451,2.146
						c-0.33,0.906-0.777-0.867-0.795-2.367c-1.34,2.115,0.447,1.775-0.184,6.191l-0.281-2.033c-0.754,1.364-0.381,2.941-0.781,5.275
						c0.24-0.559,1.062-4.692,1.533-2.363c-0.076,0.669-0.086,1.544,0.264,2.798c-0.512,0.038-0.326,1.269-0.225,2.816l-0.684-0.073
						c0.275,1.665,0.613,1.517,0.967,2.488c0.021,1.871-0.484,2.278-0.906,2.734c0.033,2.991,0.744-2.096,1.041,1.438
						c-0.162,2.496,0.275,4.228,0.678,7.201c-0.215,1.75-0.418-0.295-0.605,0.334l0.559,1.533c-0.01,0.379-0.178,0.26-0.262,0.2
						c0.225,1.298,0.68,0.093,0.887,2.138c0.754,0.541-1.047,4.226-0.17,6.748c-0.186,0.627-0.418-0.297-0.68-0.103
						c0.596,3.472,0.438,2.976,1.219,5.83l-0.418,2.436c0.49-1.788,1.119,0.495,1.637,2.503c0.238-0.635,0.449-1.178,0.547-1.543
						l0.4,3.205c-0.107,0.387-0.344,0.062-0.633-0.464c0.057,0.22,0.115,0.427,0.168,0.588c-0.256,1.144-0.633,0.548-1.025-0.272
						c0.139-0.389,0.273-0.774,0.406-1.151c-0.42-0.792-0.885-1.531-1.281-1.367c0.08,0.208,0.152,0.607,0.195,1.048
						c-0.115-0.207-0.217-0.339-0.283-0.242c-0.07,0.106,0.082,0.44,0.262,0.965l-0.75,0.723l0.305,0.178
						c0,0-0.029,0.262-0.074,0.652c-0.051,0.393-0.121,0.913-0.191,1.436c-0.139,1.045-0.277,2.088-0.277,2.088
						c0.703,2.996,1.771,5.615,1.99,10.377c-0.531-1.189-0.902-0.271-1.559-0.349c0.723-1.282-0.223-3.683-0.031-6.14
						c-0.1,1.283-0.406,0.996-0.51,0.668l0.545,4.396c-0.535-0.108-0.422,0.924-0.666,2.064c1.08-0.844,0.643,3.286,0.934,5.08
						c-0.359,0.102-0.715-0.336-0.586-2.512c-0.848,2.383,1.188,3.138,0.461,5.479c0-0.532,0.061-0.817-0.115-1.032
						c0.291,1.252-0.021,4.282-0.316,3.559l0.002-0.531c-0.219,3.525-0.438,10.746,0.453,11.311
						c-0.117,0.029-1.066-0.507-1.242-0.727l2.775,6.43c-0.752-0.589-2.686,1.461-3.002-1.484c-0.145,0.836-0.316,1.869-0.117,3.652
						c0.135-0.567,1.18-1.38,1.219-0.593c-0.953,2.113-0.523,1.474-1.369,4.09c0.201-0.851,1.377,0.162,1.281,1.521
						c-0.172-0.222-1.203,0.055-1.309-0.448l1.051,3.441c-0.18-0.855-1.004-0.201-1.373,0.538c0.234-0.351-0.098,2.952-0.006,3.868
						l0.312-1.438c-0.277,3.854,1.584,3.854,1.426,7.646c-0.236-0.46-1.49-1.157-1.689,0.786c0.314,0.448,0.963,1.438,1.734,2.721
						c0.752,1.285,1.492,2.865,1.771,4.529l-0.334,0.648l0.465,2.551c-0.961-1.554-3.014-6.02-3.83-8.503
						c-0.24,1.443-0.402,0.403-0.314,2.563c-0.307,0.77-0.527-1.173-0.562-1.812l-0.082,5.048c0.707-0.239,0.814,3.834,1.404,3.619
						l-0.881-5.443c0.707-0.228,2.107,3.112,2.072,6.653c-0.26,0.915-1.287-0.623-1.521-0.542c0.127,0.227,0.268,1.067,0.354,1.893
						c0.094,0.823,0.174,1.629,0.092,1.797l-0.475-1.486c-0.146,1.991,1.146,3.173,0.615,5.583c0.006,0.82-0.764,2.506-0.334,2.62
						c0.729-1.394,3.229-1.807,3.893-0.963c-0.031,0.285-0.518,4.319-0.84,5.281c-0.535,1.394-1.672-1.897-2.131-0.715
						c0.193,0.035,0.488,0.76,0.596,1.062c-0.092,0.869-0.631-0.309-0.385,1.546c0.748,0.253,0.264,3.789,0.686,0.831
						c0.361,1.802,0.018,1.945,0.23,4.079c0.408-0.72,1.75,1.78,2.111,3.578c-0.191-0.091-0.395,0.34-0.488,0.548
						c0.271,3.727,0.143,5.754,0.459,9.224c-0.145,0.336-0.197,2.029-0.574,1.345c0.174,0.487,0.461,0.924,0.58,1.992
						c-0.43,2.129-0.322-2.377-0.922-0.729c0.436,0.097,0.832,2.712,1.225,4.212c0.605-0.527-0.184-3.532-0.594-5.034
						c0.895-0.09,2.078,2.479,2.803,6.076c0.475,2.867-0.467,1.302-0.297,1.792c0.301,5.435,2.01,4.483,1.656,9.06
						c-0.449,1.835-1.127,0.163-1.512,0.59c-0.369-2.337,0.127-3.642-0.047-5.231l-0.1,1.981c-0.25-0.732-0.535-2.287-0.443-3.155
						c-0.328,1.532,0.576,9.169,0.385,13.38c0.24,0.73,0.523,2.005,0.713,1.386l-0.168-1.32c0.377-1.245,0.803,2.462,0.904,0.771
						c0.455,1.76,0.973,3.749,0.811,6.276l-0.635,0.493c0.188-0.06,0.334-1.655,0.115-2.354c0.32,1.04-0.758,3.879,0.129,5.004
						l0.396-1.776c0.381,1.782,1.15,4.004,1.002,6.235c0.625-1.016-0.086-0.511,0.619-2.111c-0.893,1.396-0.143-5.731-1.055-3.492
						c0.82-1.655,0.281-2.832,0.955-5c-0.211,0.075-0.385,0.775-0.34-1.11c-0.064-0.082-0.15-0.278-0.201-0.403
						c0.004-0.058,0.006-0.078,0.012-0.128c-0.008,0.038-0.014,0.066-0.021,0.104c-0.035-0.079-0.043-0.086-0.008,0.039
						c-0.08,0.452-0.182,0.819-0.295,0.974c-0.49-0.914-0.67-3.884-1-4.873c0.027-1.114,0.277,0.449,0.465-0.169l-0.48-1.479
						c0.465-0.178,0.594-3,1.047-0.4l-0.137-2.357c0.174-1.404,0.154-3.322-0.125-4.484c0.02-1.116-0.768-2.75-0.307-1.817
						l-0.617-3.651l0.115-0.044c-0.258-3.634-1.434-7.396-0.975-11.603c-0.234-1.205-0.5-2.448-0.557-4.496l0.375-0.436
						c-0.299-1.552-0.018-4.724-0.5-5.353c0.971-1.776-0.426-7.578-0.426-10.329l-0.543-0.062c-0.088-1.886-0.355-3.68-0.717-6.004
						l-0.467,0.172c-0.5-1.997-0.047-5.211-0.125-8.392c0.188,0.21,0.16,1.021,0.064,1.597c0.994-3.834-1.027-8.02-0.256-11.485
						c-0.152-0.859-0.076-1.482,0.059-2.083c-0.002,0.08,0.006,0.15,0.02,0.213c0.004-0.088,0.01-0.219,0.016-0.353
						c0.09-0.378,0.197-0.769,0.283-1.188c-0.125,0.357-0.229,0.7-0.279,0.999c0.006-0.662-0.027-1.667-0.121-2.655l0.521-0.406
						c-0.004-0.08-0.006-0.146-0.01-0.229c0.213-0.959-0.223-0.783-0.619-0.278c-0.072-0.499-0.162-0.957-0.275-1.313
						c0.844-0.756-0.213-2.604,0.693-3.635c-0.42-0.682-0.121-5.021-1.004-5.593c0.117-0.027,0.186-0.318,0.172,0.22
						c0.148-1.104,0.297-2.209,0.084-3.218l0.668-0.439l-0.771-2.463c0.457-1.455,0.711-2.057,1.15-0.571
						c-0.621-3.564-0.17-2.879-0.809-5.911l0.414,0.163c0.029-1.074-0.463-2.811-0.088-3.443c0.436-1.188,0.629-4.154,0.732-7.598
						c0.088-3.443,0.18-7.357,0.611-10.438c-1.26,1.174,0.611-2.857-0.342-3.121c0.299-0.354,0.482-1.211,0.717-0.207
						c-0.225-3.154,0.559-4.729-0.209-6.913c0.303-0.358,0.416,0.679,0.598,0.358c-0.059-0.254-0.234-1.004-0.053-1.33
						c0.18-0.318,0.234,0.465,0.354,0.965c0.014-3.223-0.881-3.553-1.723-3.793c0.395-1.627,0.32-2.442-0.246-3.619
						c0.271-0.567,0.551-1.516,0.672,0.484c0.027-1.123,0.33-6.875-0.35-6.984c0.168-0.354,0.033-1.573-0.049-1.868
						c0.014-2.522,0.07-2.747-0.02-5.224l-0.105,0.688c-0.828-0.965-0.205-2.056-0.324-4.052l0.084,0.056
						c0.531-4.594-0.285-1.969,0.301-6.505l-0.498,0.26c-1.115-0.387,0.455-4.019-0.088-6.627l-0.246,0.957
						c-0.441-1.414,1.299-4.062,1.367-5.51c0.08-0.318,0.176,0.488,0.268,0.924c0.465-3.802-0.689-0.458-0.979-3.258
						c0.334-0.536,0.945,0.623,0.922-1.273c0.246-0.961-1.428-5.419-0.861-8.039c-0.25,0.586-0.498,1.167-0.768-0.123
						c-0.195-1.996,0.789-5.473-0.164-7.186c0.064-0.255,0.133-0.354,0.201-0.369c-0.295-1.496-0.6-4.887-1.115-5.786
						c1.557-1.424-0.928-9.418,0.682-9.388l-0.055-4.655l0.166,0.126c0.193-2.973-0.111-4.04-0.463-5.104
						c0.141-0.686,0.27-0.176,0.352-0.115c0.539-4.342,0.445-4.77-0.133-8.476l0.551-0.348c-0.234-1.013,1.254-6.244,0.947-10.562
						c0.057,0.046,0.15,0.143,0.199,0.488c-0.246-4.868,2.363-11.418,0.568-13.34l-0.244-3.222c-0.441,4.11-0.785-0.673-1.225,0.999
						c0.004-1.626,0.875-4.146,0.832-2.149l-0.119,0.305c0.945,0.803,0.719-5.097,1.389-4.941c0.225-4.066,0.516-8.084,0.859-12.037
						c0.256-3.96,0.408-7.875,0.494-11.708l-0.787,0.885c0,0,0.02-0.667,0.039-1.334c0.029-0.668,0.021-1.331,0.021-1.331
						c0.162-0.696,0.602-0.943,0.582,0.956c0.445-1.006-0.424-3.173-0.588-3.227c0.244-3.71,0.936,1.438,0.932,0.301l-0.088-1.543
						l-0.084,0.349c-0.344-1.248-0.682-1.354-0.688-3.631c0.127-1.44,0.465-0.744,0.484-1.312c0.055,0.003,0.076-0.189,0.006-0.87
						v-3.345l-0.586,1.345c-0.332-1.479-0.029-3.145-0.693-1.592c1.027-2.279,0.145-12.478,0.449-13.872
						c-0.488-2.068-0.52-4.116-0.514-6.655c-0.115,0.633-0.799,1.023-0.756-1.167c1.438,0.774,0.539-4.019,1.529-5.809
						c-0.648,1.595-0.289-6.221-1.205-3.72c0.08-1.829,0.531-0.122,0.838-1.516c-0.635-4.334,0.174-9.592-0.115-14.954
						c-0.189-0.08-0.457,0.826-0.758-0.319l0.879-2.854c-0.111-1.059-1.096-0.953-0.486-2.904c-0.152,0.277-0.381,0.69-0.453-0.02
						c0.705-10.534-1.162-21.483,0.34-32.188c-0.334,1.451-0.387,0.487-0.422-0.617c-0.074,0.72-0.463-0.011-0.713,0.135l0.617-4.48
						c-0.719-0.807-0.143-4.793-0.822-5.253l0.148,1.415c-0.828-1.875-1.711,2.655-2.732,2.392c0.943,2.1-1.227,5.581,0.131,9.027
						c-0.193,0.767-0.34-0.647-0.568-0.235c0.453,0.872,0.564,1.931,0.406,3.897l-0.111-0.221c0.213,5.517-0.172,7.89-0.338,14.096
						l0.494-0.468c-0.041,1.333-0.193,1.616-0.307,2.242c0.791,1.516-0.031-3.742,0.838-2.364c-0.99,1.786,0.166,9.395-0.973,10.611
						c0.033,2.051,0.57-0.612,0.604,1.438l-0.305,0.55l0.416,0.509c-0.041,1.346-0.42,2.032-0.688,2.088
						c0.025-0.326-0.092-0.925-0.121-1.273c-0.338,1.751,0.221,4.912,0.111,5.513l0.156-1.974
						c0.404,5.591,0.123,12.419,0.865,17.805l0.229-0.415c0.52,4.114-0.197,3.309,0.094,7.83l-0.059-0.164
						c0.254,0.901,0.395,2.109,0.393,3.349c-0.299-1.138-0.498,2.161-0.834,0.668c0.559,4.462,0.412,2.203,1.352,5.143l-0.379,0.687
						c0.375,1.001,0.562,1.082,0.709,3.342c-0.373-1.85-0.572,1.452-1.059-0.618c-0.77,4.757,1.004,7.032-0.211,9.226
						c1.131,2.164,0.525-4.114,0.781-2.896c0.336-1.027,0.85,1.787,0.77,3.276c0.006,1.518-1.344,2.597-1.25,6.407
						c-0.002-0.379-0.086-0.404-0.088-0.782c-0.25,1.431,0.432,2.791,0.014,4.546c0.678,0.974,0.006,2.272,0.852,2.547l-0.262-3.495
						c0.238,1.978,1.324,3.833,0.816,7.097c-0.174-0.254-0.361-1.218-0.508-1.885c-0.229,0.957,0.148,1.831-0.111,2.818
						c-0.422-0.141-0.445-1.194-0.459-2.479c-0.045-1.292-0.07-2.815-0.412-3.874c-0.334,1.028,0.688,4.011-0.244,2.953
						c1.207,1.529-0.178,3.728,0.688,6.297l-0.5-0.174c0.074,0.405,0.301,1.249,0.277,1.996l-0.635-1.359
						c0.529,2.082-0.539,3.981-0.262,5.971c0.039-4.156,0.619-0.916,1.01-2.667c0.314,2.581-0.043,3.313-0.479,4.115
						c-0.424,0.803-0.906,1.676-0.928,4.556c-0.033-0.78,0.447-2.909,0.621-1.681c-0.158,1.091-0.422,2.529-0.721,3.188
						c-0.084,3.815,0.547-0.559,0.775,1.081c-0.68,1.267,0.162,1.888,0.264,3.577l-0.512-0.021
						c-0.637,4.334,0.984,1.225,0.309,5.123l-0.592-1.706l0.039,2.057l-0.551-0.462c0.273,2.253,0.111,2.939-0.207,5.105
						c0.395-0.479,0.914,0.353,0.779,2.289c-0.406,1.295-0.428-0.776-0.568,1.971c-0.27-0.644-0.619-1.353-0.057-2.509
						c-0.156-0.136-0.273-0.636-0.43-0.772c-0.455,1.392-0.355,3.563-0.428,4.556c0.049-0.381,0.113-0.835,0.203-1.063l0.4,4.028
						c-0.242,0.61-0.357,0.103-0.471-0.4c-0.006,0.809,0.186,1.384,0.137,2.571c-0.393-0.338-0.826-0.297-0.891-1.988l0.166,3.822
						c-0.205,0.235-0.635,1.913-0.754,1.407c-0.391,2.094,0.447,5.23-0.068,8.004c0.07,0.149,0.127,0.445,0.146,1.044
						c-0.303,2.612-0.855,4.942-0.447,8.094l-0.826,1.746c0.057,2.458,1.049-2.365,1.145,1.722c0.107,2.894-0.686,1.058-0.939,2.064
						c0.359,1.459,1.111,3.97,0.484,6.626C464.631,198.812,464.746,198.12,464.695,197.296z M466.018,227.463
						c-0.135-0.572-0.52-1.708-0.238-2.148C466.396,225.939,466.141,226.467,466.018,227.463z M468.303,272.956
						c-0.16-0.435-0.062-1.102,0.146-1.854C468.479,271.649,468.449,272.269,468.303,272.956z M474.508,399.739
						c-0.01-0.023-0.016-0.042-0.029-0.061C474.592,398.361,474.545,398.829,474.508,399.739z M474.467,402.458
						c0.09,0.269,0.16,0.244,0.223,0.124c-0.141-0.18-0.189-0.786-0.199-1.479C474.369,401.304,474.299,401.658,474.467,402.458z
						 M473.094,113.522l-0.125,0.525C472.799,112.865,472.938,113.195,473.094,113.522z"/>
					<path fill="#8D2020" d="M467.617,267.785c0.084-0.164,0.178-0.21,0.273-0.248C467.803,267.309,467.705,267.304,467.617,267.785
						z"/>
					<path fill="#8D2020" d="M465.189,178.486l0.012-0.091c-0.027-0.053-0.057-0.082-0.086-0.1L465.189,178.486z"/>
					<path fill="#8D2020" d="M466.553,361.173c0.023-0.56,0.096-0.877,0.182-1.091C466.609,360.062,466.51,360.325,466.553,361.173z
						"/>
					<path fill="#8D2020" d="M476.025,416.794l-0.188-1.74c0.051,0.843-0.051,1.146-0.119,1.574
						C475.838,416.585,476,416.248,476.025,416.794z"/>
					<path fill="#8D2020" d="M473.209,431.854c0.068,0.251,0.021,0.535,0.092,0.782l0.236-0.075
						C473.492,431.487,473.281,430.741,473.209,431.854z"/>
					<path fill="#8D2020" d="M474.375,418.441c-0.426,0.146-0.246,1.229-0.127,2.442c-0.004-0.073-0.01-0.144-0.006-0.216
						C474.855,421.02,474.615,419.726,474.375,418.441z"/>
					<path fill="#8D2020" d="M474.271,421.165c0.035,0.374,0.047,0.753,0.033,1.117
						C474.545,422.419,474.354,421.832,474.271,421.165z"/>
					<path fill="#8D2020" d="M474.98,405.87c-0.072,0.582,0.574,0.329,0.42,0.665C475.992,407.146,474.482,402.735,474.98,405.87z"
						/>
					<polygon fill="#8D2020" points="472.986,419.448 473.506,419.005 473.055,418.337 					"/>
					<path fill="#8D2020" d="M473.074,409.885l-0.084,1.939c0.088-0.033,0.146,0.211,0.197,0.511
						C473.166,411.144,473.229,409.832,473.074,409.885z"/>
					<path fill="#8D2020" d="M473.186,412.337c0.01,0.62,0.041,1.211,0.139,1.554C473.307,413.554,473.266,412.831,473.186,412.337z
						"/>
					<polygon fill="#8D2020" points="472.744,416.812 472.836,416.238 472.832,414.874 					"/>
					<path fill="#8D2020" d="M471.656,389.146l-0.338-2.089c-0.199-0.197-0.26,0.385-0.119,1.161
						C471.369,388.709,471.508,389.483,471.656,389.146z"/>
					<path fill="#8D2020" d="M470.76,395.62c0.061-0.576,0.176-0.624,0.322-0.959l-0.662-0.01L470.76,395.62z"/>
					<path fill="#8D2020" d="M470.07,389.514c-0.201-0.194-0.789-2.998-0.516-0.345C469.754,389.366,470.09,391.455,470.07,389.514z
						"/>
					<polygon fill="#8D2020" points="468.137,357.779 468.178,358.313 469.252,358.16 					"/>
					<path fill="#8D2020" d="M464.785,329.705c-0.322,2.525,0.652,0.614,0.271,2.893c0.24,0.595,0.311-1.861,0.516-1.25
						C465.342,329.82,465.514,329.022,464.785,329.705z"/>
					<path fill="#8D2020" d="M465.572,331.347c0.037,0.245,0.082,0.504,0.145,0.778
						C465.662,331.685,465.615,331.477,465.572,331.347z"/>
					<polygon fill="#8D2020" points="471.744,15.418 471.938,13.81 471.596,14.851 					"/>
					<path fill="#8D2020" d="M470.883,12.343l0.682-0.385L470.922,11C470.959,11.362,471.033,12.066,470.883,12.343z"/>
					<path fill="#8D2020" d="M464.842,231.974l0.172,0.113c0.166-0.256,0.162-0.63,0.156-1.38L464.842,231.974z"/>
					<polygon fill="#8D2020" points="464.332,210.15 464.336,210.531 464.926,209.796 					"/>
					<path fill="#8D2020" d="M463.457,191.607c-0.061,0.753,0.031,1.642,0.012,2.403
						C463.365,192.354,464.26,191.431,463.457,191.607z"/>
				</g>
			</g>
		</g>
	</g>
</g>
<g>
	<g>
		<g>
			<g>
				<g>
					<path fill="#8D2020" d="M505.566,479.357c0.703,0.21,0.562-0.282,0.689-0.333C505.032,478.829,505.569,479.477,505.566,479.357
						z"/>
					<path fill="#8D2020" d="M493.566,477.987l0.235-0.147c0,0-0.452,0.043-0.903,0.084c-0.451,0.04-0.902,0.092-0.902,0.092
						s0.393-0.016,0.785-0.019C493.174,477.992,493.566,477.987,493.566,477.987z"/>
					<path fill="#8D2020" d="M482.47,476.764c0.989,0.84,4.036,0.205,5.988,0.7l0.307,0.212l0.962-0.5
						C487.307,476.946,484.146,477.123,482.47,476.764z"/>
					<path fill="#8D2020" d="M476.61,474.79c0.355,0.31-1.303,0.203,1.389,0.147c-0.134-0.038-0.172-0.059-0.249-0.084
						C477.509,474.848,477.176,474.834,476.61,474.79z"/>
					<path fill="#8D2020" d="M477.75,474.854C478.932,474.879,476.99,474.575,477.75,474.854L477.75,474.854z"/>
					<path fill="#8D2020" d="M472.301,474.829l1.56-0.224c-0.32-0.196-1.7-0.252-1.185-0.372
						C471.078,474.346,471.404,474.525,472.301,474.829z"/>
					<path fill="#8D2020" d="M470.82,475.352l0.804-0.094C471.485,475.182,471.273,475.152,470.82,475.352z"/>
					<path fill="#8D2020" d="M473.332,475.057l-1.708,0.201c0.222,0.127,0.239,0.372,0.783-0.07
						C472.263,475.41,472.604,475.201,473.332,475.057z"/>
					<path fill="#8D2020" d="M474.293,475.207c0.864,0.199,1.98,0.348,0.418,0.548C477.674,475.768,477.265,475.219,474.293,475.207
						z"/>
					<path fill="#8D2020" d="M481.847,477.51l1.136,0.299l1.015-0.166C483.49,477.712,481.793,477.26,481.847,477.51z"/>
					<path fill="#8D2020" d="M462.657,474.355c-0.097,0.162,0.521,0.425,0.638,0.631l1.141-0.188
						C463.847,474.68,462.736,474.596,462.657,474.355z"/>
					<path fill="#8D2020" d="M463.295,474.986l-1.703,0.291C463.113,475.297,463.392,475.162,463.295,474.986z"/>
					<polygon fill="#8D2020" points="470.528,476.188 473.345,475.663 469.989,476.186 					"/>
					<polygon fill="#8D2020" points="456.142,474.419 457.102,474.029 455.392,474.623 					"/>
					<path fill="#8D2020" d="M451.835,474.577c0.705-0.326-0.99-0.499-0.241-0.708c-1.17,0.083-2.161,0.373-3.05,0.637
						C449.492,474.348,450.512,474.356,451.835,474.577z"/>
					<path fill="#8D2020" d="M447.047,474.895c0.475-0.086,0.964-0.232,1.497-0.387
						C448.039,474.592,447.544,474.708,447.047,474.895z"/>
					<path fill="#8D2020" d="M458.689,475.227c-0.134-0.094-0.391-0.346-1.347-0.437l0.676,0.441
						C458.223,475.23,458.454,475.229,458.689,475.227z"/>
					<path fill="#8D2020" d="M458.042,475.246l-0.023-0.014c-0.727,0-1.229,0-1.444,0
						C456.758,475.234,457.201,475.238,458.042,475.246z"/>
					<path fill="#8D2020" d="M458.857,475.227c-0.062,0-0.107,0-0.17,0C458.754,475.27,458.793,475.285,458.857,475.227z"/>
					<path fill="#8D2020" d="M466.064,475.729c-1.004,0.25-3.086,0.514-1.068,0.908
						C465.714,476.329,464.558,476.104,466.064,475.729z"/>
					<path fill="#8D2020" d="M459.696,475.783l1.809,0.088c-0.036-0.119-0.364-0.291,0.131-0.421L459.696,475.783z"/>
					<polygon fill="#8D2020" points="458.814,475.938 459.696,475.783 459.025,475.752 					"/>
					<path fill="#8D2020" d="M450.143,475.237c-0.772,0.217-1.623,0.257-2.583,0.313c1.032,0.062,2.098,0.079,3.11,0.056
						C450.809,475.46,451.248,475.194,450.143,475.237z"/>
					<path fill="#8D2020" d="M453.98,475.271c-0.055,0.009-0.123,0.021-0.174,0.029C453.914,475.337,454,475.348,453.98,475.271z"/>
					<path fill="#8D2020" d="M438.12,475.788c0.051,0.026,0.1,0.052,0.151,0.079c0.013-0.027,0.02-0.052,0.033-0.079H438.12z"/>
					<path fill="#8D2020" d="M450.845,475.688c0.777,0.068,1.238-0.053,1.677-0.204c-0.578,0.06-1.191,0.104-1.852,0.123
						C450.607,475.672,450.597,475.715,450.845,475.688z"/>
					<path fill="#8D2020" d="M444.416,475.178c0.404,0.084,0.862,0.152,1.345,0.213
						C445.363,475.258,444.555,475.055,444.416,475.178z"/>
					<path fill="#8D2020" d="M453.543,475.182c0.038-0.008,0.074-0.016,0.115-0.023
						C453.402,475.067,453.435,475.114,453.543,475.182z"/>
					<path fill="#8D2020" d="M453.543,475.182c-0.398,0.074-0.709,0.193-1.021,0.302c0.472-0.048,0.907-0.106,1.285-0.183
						C453.71,475.271,453.613,475.225,453.543,475.182z"/>
					<path fill="#8D2020" d="M435.316,478.758c0.131-0.419,2.154-0.849,3.92-0.438c1.721-0.354,0.556-1.711-0.965-2.451
						c-0.05,0.185-0.045,0.354-1.812,0.642c0.625,0.217,3.948,0.449,2.46,0.862c-2.348,0.269-1.932-0.103-3.077-0.305
						c0.981,0.509-2.979,0.807-2.457,1.569l2.062-0.303C435.487,478.453,434.741,478.656,435.316,478.758z"/>
					<path fill="#8D2020" d="M441.652,475.831l0.729-0.071c-0.834-0.053-1.437-0.201-2.538-0.508
						c-1.208,0.232-1.456,0.395-1.537,0.536l3.596-0.026L441.652,475.831z"/>
					<path fill="#8D2020" d="M445.662,475.671c-0.559,0.474-2.309,0.714-1.221,1.181c2.146-0.088,1.493-0.422,2.771-0.655
						c-3.463,0.207,0.989-0.282-1.522-0.474c0.681-0.097,1.291-0.137,1.869-0.172c-0.626-0.039-1.229-0.092-1.799-0.16
						c0.032,0.01,0.055,0.018,0.081,0.025l0.017-0.002l-0.004,0.007c0.151,0.054,0.201,0.087,0.032,0.058
						c-0.012,0.007-0.054,0.01-0.071,0.012c-0.021,0.064-0.086,0.122-0.152,0.177c-1.006-0.067-0.161-0.114,0.152-0.177
						c0.011-0.021,0.036-0.045,0.039-0.069l-0.013-0.005l-3.461,0.342C443.117,475.805,444.034,475.766,445.662,475.671z"/>
					<path fill="#8D2020" d="M463.145,477.623c-0.108-0.04-0.104-0.072-0.112-0.105
						C462.808,477.576,462.723,477.615,463.145,477.623z"/>
					<path fill="#8D2020" d="M461.713,477.359c0.252-0.066,0.461-0.25,1.283-0.21c0.713,0.131-0.003,0.219,0.035,0.368
						c0.494-0.125,1.73-0.342,0.178-0.551l-0.245,0.063c-1.399-0.146-3.207-0.7-2.964-0.765
						C460.414,476.673,460.778,476.963,461.713,477.359z"/>
					<path fill="#8D2020" d="M453.592,476.596l-2.888,0.293l1.483,0.36l-0.082-0.235
						C453.754,477.067,453.392,476.783,453.592,476.596z"/>
					<polygon fill="#8D2020" points="437.785,475.568 438.156,475.077 436.508,475.796 					"/>
					<polygon fill="#8D2020" points="434.049,475.693 434.182,475.271 433.199,475.539 					"/>
					<path fill="#8D2020" d="M222.52,486.368l-0.853,0.159C222.072,486.471,222.331,486.419,222.52,486.368z"/>
					<path fill="#8D2020" d="M228.716,486.109l0.136-0.213C228.576,486.022,228.465,486.112,228.716,486.109z"/>
					<path fill="#8D2020" d="M342.086,481.221c-1.218-0.423-2.561-1.065-2.426-0.588l0.361,0.469
						C340.878,481.04,341.531,481.108,342.086,481.221z"/>
					<path fill="#8D2020" d="M278.895,482.159c0.116,0.044,0.239,0.09,0.36,0.136c0.302-0.162,0.583-0.312,0.837-0.449
						C279.73,481.939,279.322,482.046,278.895,482.159z"/>
					<path fill="#8D2020" d="M278.018,484.074l-1.627-0.279C276.757,483.895,277.279,483.988,278.018,484.074z"/>
					<path fill="#8D2020" d="M188.648,486.352l-1.023,0.399C189.179,486.857,188.51,486.574,188.648,486.352z"/>
					<path fill="#8D2020" d="M395.462,478.133c-1.084-0.087-1.933-0.076-2.679-0.031
						C394.088,478.244,395.157,478.542,395.462,478.133z"/>
					<path fill="#8D2020" d="M224.671,481.376c-0.509,0.106-0.723,0.21-0.702,0.312
						C224.494,481.586,224.787,481.484,224.671,481.376z"/>
					<path fill="#8D2020" d="M389.714,478.393c0.191,0.027,0.377,0.035,0.571,0.055c0.771-0.15,1.546-0.285,2.498-0.346
						C391.819,477.995,390.726,477.977,389.714,478.393z"/>
					<path fill="#8D2020" d="M67.216,484.151c-0.089-0.019-0.196-0.027-0.277-0.05C66.913,484.164,67.036,484.165,67.216,484.151z"
						/>
					<path fill="#8D2020" d="M31.658,480.191c0.349-0.035,0.918-0.047,1.456-0.063C32.852,480.102,32.413,480.113,31.658,480.191z"
						/>
					<path fill="#8D2020" d="M418.829,475.958C419.628,475.875,418.953,475.899,418.829,475.958L418.829,475.958z"/>
					<path fill="#8D2020" d="M422.811,477.635c-0.168,0.057-0.294,0.127-0.31,0.233C422.562,477.755,422.67,477.682,422.811,477.635
						z"/>
					<path fill="#8D2020" d="M382.078,481.983c-0.023,0.001-0.042,0.002-0.069,0.004
						C382.254,482.057,382.211,482.043,382.078,481.983z"/>
					<path fill="#8D2020" d="M420.047,476.109c-0.305-0.047-0.655-0.087-1.033-0.09
						C419.181,476.041,419.494,476.066,420.047,476.109z"/>
					<path fill="#8D2020" d="M419.873,475.897c0.278,0.009,0.497,0.016,0.705,0.021
						C420.676,475.839,420.584,475.794,419.873,475.897z"/>
					<path fill="#8D2020" d="M417.716,476.059c0.457-0.039,0.886-0.045,1.298-0.039c-0.158-0.021-0.226-0.043-0.185-0.062
						C418.595,475.979,418.265,476.01,417.716,476.059z"/>
					<path fill="#8D2020" d="M132.419,481.657c-0.053-0.013-0.113-0.021-0.171-0.04
						C131.447,481.824,131.799,481.786,132.419,481.657z"/>
					<path fill="#8D2020" d="M321.23,485.275c0.037-0.003,0.059-0.014,0.093-0.02c-0.037-0.007-0.084-0.015-0.117-0.021
						L321.23,485.275z"/>
					<path fill="#8D2020" d="M318.363,485.5c1.237-0.521,1.927-0.423,2.843-0.264l-0.889-1.366L318.363,485.5z"/>
					<path fill="#8D2020" d="M207.647,486.772l2.028,0.428c-2.46,0.664-4.243,0.417-2.335,1.012c0.303-1.442,7.928-0.088,8.19-1.538
						l1.346,0.242c-0.384,0.003-0.444,0.092-0.824,0.094c2.626,0.571,1.909-1.131,5.259-1.078c1.17,0.057,1.998,0.228,1.209,0.436
						l2.583-0.477c0.759-0.006,0.59,0.252-0.166,0.26l3.941-0.299l-0.026,0.043c0.542-0.252,1.785-0.66,2.393-0.838
						c1.009,0.158-0.489,0.176-0.223,0.343l2.146-0.451c0.906,0.331-0.867,0.778-2.367,0.795c2.115,1.341,1.775-0.447,6.191,0.185
						l-2.033,0.28c1.365,0.754,2.942,0.382,5.276,0.782c-0.559-0.24-4.693-1.062-2.364-1.534c0.669,0.077,1.544,0.087,2.798-0.263
						c0.038,0.511,1.269,0.326,2.817,0.224l-0.074,0.685c1.665-0.275,1.517-0.614,2.488-0.967c1.871-0.022,2.278,0.484,2.734,0.906
						c2.991-0.033-2.096-0.745,1.438-1.041c2.496,0.161,4.228-0.275,7.201-0.678c1.75,0.215-0.295,0.418,0.334,0.605l1.533-0.559
						c0.379,0.009,0.26,0.177,0.2,0.261c1.298-0.224,0.093-0.68,2.138-0.886c0.541-0.754,4.226,1.047,6.748,0.169
						c0.627,0.187-0.297,0.419-0.103,0.681c3.472-0.597,2.976-0.438,5.83-1.22l2.436,0.419c-1.788-0.49,0.495-1.119,2.503-1.637
						c-0.635-0.239-1.178-0.449-1.543-0.547l3.205-0.4c0.387,0.107,0.062,0.344-0.464,0.633c0.22-0.058,0.427-0.115,0.588-0.169
						c1.144,0.257,0.548,0.634-0.272,1.025c-0.389-0.138-0.774-0.272-1.151-0.406c-0.792,0.421-1.531,0.886-1.367,1.282
						c0.208-0.081,0.607-0.152,1.048-0.195c-0.207,0.114-0.339,0.217-0.242,0.283c0.106,0.07,0.44-0.083,0.965-0.262l0.723,0.749
						l0.178-0.304c0,0,0.262,0.029,0.652,0.073c0.393,0.052,0.913,0.122,1.436,0.191c1.045,0.139,2.088,0.278,2.088,0.278
						c2.996-0.703,5.615-1.772,10.377-1.99c-1.189,0.531-0.271,0.902-0.349,1.558c-1.282-0.722-3.683,0.224-6.14,0.032
						c1.283,0.099,0.996,0.406,0.668,0.51l4.396-0.546c-0.108,0.536,0.924,0.422,2.064,0.667c-0.844-1.08,3.286-0.643,5.08-0.934
						c0.102,0.358-0.336,0.715-2.512,0.586c2.383,0.848,3.138-1.188,5.479-0.461c-0.532,0-0.817-0.062-1.032,0.115
						c1.252-0.291,4.282,0.021,3.559,0.316l-0.531-0.003c3.525,0.22,10.746,0.438,11.311-0.453c0.029,0.118-0.507,1.067-0.727,1.242
						l6.43-2.774c-0.589,0.751,1.461,2.686-1.484,3.001c0.836,0.146,1.869,0.317,3.652,0.117c-0.567-0.134-1.38-1.179-0.593-1.218
						c2.113,0.952,1.474,0.523,4.09,1.369c-0.851-0.202,0.162-1.377,1.521-1.282c-0.222,0.173,0.055,1.204-0.448,1.31l3.441-1.052
						c-0.855,0.181-0.201,1.004,0.538,1.373c-0.351-0.233,2.952,0.099,3.868,0.006l-1.438-0.312
						c3.854,0.278,3.854-1.583,7.646-1.425c-0.46,0.235-1.157,1.489,0.786,1.688c0.448-0.313,1.438-0.962,2.721-1.733
						c1.285-0.752,2.865-1.492,4.529-1.771l0.648,0.333l2.551-0.464c-1.554,0.96-6.02,3.013-8.503,3.83
						c1.443,0.24,0.403,0.402,2.563,0.313c0.77,0.308-1.173,0.527-1.812,0.563l5.048,0.082c-0.239-0.708,3.834-0.815,3.619-1.404
						l-5.443,0.88c-0.228-0.707,3.112-2.106,6.653-2.071c0.915,0.26-0.623,1.287-0.542,1.521c0.227-0.128,1.067-0.268,1.893-0.354
						c0.823-0.095,1.629-0.174,1.797-0.093l-1.486,0.476c1.991,0.146,3.173-1.146,5.583-0.615c0.82-0.006,2.506,0.763,2.62,0.333
						c-1.394-0.728-1.807-3.228-0.963-3.892c0.285,0.031,4.319,0.518,5.281,0.84c1.394,0.535-1.897,1.671-0.715,2.13
						c0.035-0.193,0.76-0.488,1.062-0.595c0.869,0.092-0.309,0.631,1.546,0.385c0.253-0.748,3.789-0.264,0.831-0.686
						c1.802-0.361,1.945-0.018,4.079-0.231c-0.72-0.408,1.78-1.75,3.578-2.111c-0.091,0.192,0.34,0.396,0.548,0.488
						c3.727-0.271,5.754-0.142,9.224-0.458c0.336,0.144,2.029,0.197,1.345,0.574c0.487-0.174,0.924-0.461,1.992-0.58
						c2.129,0.43-2.377,0.322-0.729,0.922c0.097-0.437,2.712-0.832,4.212-1.225c-0.527-0.605-3.532,0.183-5.034,0.594
						c-0.09-0.895,2.479-2.078,6.076-2.803c2.867-0.475,1.302,0.467,1.792,0.297c5.435-0.302,4.483-2.01,9.06-1.656
						c1.835,0.449,0.163,1.127,0.59,1.511c-2.337,0.37-3.642-0.126-5.231,0.048l1.981,0.1c-0.732,0.25-2.287,0.535-3.155,0.443
						c1.532,0.327,9.169-0.576,13.38-0.385c0.73-0.241,2.005-0.523,1.386-0.713l-1.32,0.168c-1.245-0.378,2.462-0.803,0.771-0.905
						c1.76-0.455,3.749-0.973,6.276-0.81l0.493,0.635c-0.06-0.188-1.655-0.335-2.354-0.115c1.04-0.32,3.879,0.758,5.004-0.13
						l-1.776-0.396c1.782-0.381,4.004-1.151,6.235-1.002c-1.016-0.625-0.511,0.086-2.111-0.619c1.396,0.892-5.731,0.142-3.492,1.055
						c-1.655-0.821-2.832-0.281-5-0.956c0.075,0.212,0.775,0.386-1.11,0.34c-0.082,0.065-0.278,0.151-0.403,0.202
						c-0.058-0.005-0.078-0.007-0.128-0.012c0.038,0.008,0.066,0.014,0.104,0.021c-0.079,0.035-0.086,0.042,0.039,0.008
						c0.452,0.08,0.819,0.181,0.974,0.295c-0.914,0.489-3.884,0.67-4.873,1c-1.114-0.028,0.449-0.277-0.169-0.465l-1.479,0.48
						c-0.178-0.466-3-0.594-0.4-1.047l-2.357,0.136c-1.404-0.174-3.322-0.153-4.484,0.126c-1.116-0.02-2.75,0.768-1.817,0.307
						l-3.651,0.617l-0.044-0.115c-3.634,0.258-7.396,1.433-11.603,0.975c-1.205,0.234-2.448,0.499-4.496,0.556l-0.436-0.374
						c-1.552,0.299-4.724,0.018-5.353,0.499c-1.776-0.97-7.578,0.427-10.329,0.427l-0.062,0.543
						c-1.886,0.088-3.68,0.354-6.004,0.717l0.172,0.467c-1.997,0.5-5.211,0.047-8.392,0.125c0.21-0.188,1.021-0.161,1.597-0.065
						c-3.834-0.993-8.02,1.028-11.485,0.257c-0.859,0.151-1.482,0.076-2.083-0.059c0.08,0.001,0.15-0.006,0.213-0.02
						c-0.088-0.004-0.219-0.01-0.353-0.016c-0.378-0.091-0.769-0.197-1.188-0.283c0.357,0.125,0.7,0.229,0.999,0.279
						c-0.662-0.007-1.667,0.027-2.655,0.121l-0.406-0.521c-0.08,0.004-0.146,0.006-0.229,0.01c-0.959-0.213-0.783,0.223-0.278,0.619
						c-0.499,0.071-0.957,0.162-1.313,0.275c-0.756-0.844-2.604,0.213-3.635-0.693c-0.682,0.42-5.021,0.121-5.593,1.004
						c-0.027-0.118-0.318-0.187,0.22-0.172c-1.104-0.148-2.209-0.297-3.218-0.084l-0.439-0.668l-2.463,0.771
						c-1.455-0.457-2.057-0.712-0.571-1.15c-3.564,0.621-2.879,0.17-5.911,0.808l0.163-0.414c-1.074-0.029-2.811,0.463-3.443,0.089
						c-1.188-0.436-4.154-0.63-7.598-0.732c-3.443-0.089-7.357-0.181-10.438-0.612c1.174,1.261-2.857-0.611-3.121,0.343
						c-0.354-0.3-1.211-0.482-0.207-0.717c-3.154,0.225-4.729-0.559-6.913,0.208c-0.358-0.302,0.679-0.416,0.358-0.597
						c-0.254,0.059-1.004,0.234-1.33,0.053c-0.318-0.18,0.465-0.235,0.965-0.354c-3.223-0.015-3.553,0.881-3.793,1.723
						c-1.627-0.395-2.442-0.32-3.619,0.246c-0.567-0.271-1.516-0.551,0.484-0.672c-1.123-0.027-6.875-0.33-6.984,0.35
						c-0.354-0.168-1.573-0.033-1.868,0.049c-2.522-0.014-2.747-0.071-5.224,0.02l0.688,0.104c-0.965,0.829-2.056,0.205-4.052,0.325
						l0.056-0.084c-4.594-0.531-1.969,0.285-6.505-0.301l0.26,0.498c-0.387,1.115-4.019-0.455-6.627,0.088l0.957,0.246
						c-1.414,0.441-4.061-1.299-5.51-1.367c-0.318-0.08,0.489-0.176,0.924-0.268c-3.802-0.466-0.458,0.689-3.258,0.979
						c-0.536-0.334,0.623-0.945-1.273-0.922c-0.961-0.246-5.419,1.427-8.039,0.86c0.586,0.25,1.167,0.499-0.123,0.769
						c-1.996,0.195-5.473-0.789-7.186,0.164c-0.255-0.064-0.354-0.133-0.369-0.201c-1.496,0.294-4.887,0.6-5.786,1.115
						c-1.424-1.558-9.418,0.927-9.388-0.683l-4.655,0.056l0.126-0.166c-2.973-0.193-4.04,0.111-5.104,0.463
						c-0.685-0.142-0.175-0.27-0.115-0.353c-4.342-0.539-4.769-0.444-8.475,0.134l-0.348-0.551
						c-1.013,0.234-6.244-1.254-10.562-0.947c0.046-0.057,0.143-0.151,0.489-0.199c-4.868,0.246-11.418-2.363-13.34-0.568
						l-3.222,0.244c4.111,0.441-0.673,0.785,0.999,1.224c-1.626-0.003-4.146-0.875-2.149-0.831l0.305,0.118
						c0.802-0.944-5.097-0.718-4.942-1.388c-4.066-0.225-8.084-0.516-12.037-0.859c-3.96-0.257-7.875-0.409-11.708-0.495
						l0.885,0.788c0,0-0.667-0.02-1.334-0.04c-0.668-0.028-1.331-0.021-1.331-0.021c-0.697-0.162-0.944-0.603,0.956-0.582
						c-1.006-0.445-3.173,0.423-3.227,0.587c-3.71-0.243,1.438-0.935,0.301-0.931l-1.543,0.088l0.349,0.084
						c-1.248,0.343-1.355,0.681-3.631,0.687c-1.441-0.127-0.744-0.464-1.312-0.483c0.003-0.055-0.189-0.076-0.87-0.006l-3.345-0.001
						l1.345,0.587c-1.478,0.332-3.144,0.029-1.592,0.693c-2.279-1.027-12.477-0.145-13.872-0.449
						c-2.068,0.487-4.116,0.52-6.655,0.514c0.633,0.115,1.023,0.798-1.167,0.756c0.774-1.438-4.019-0.54-5.809-1.529
						c1.595,0.648-6.22,0.288-3.719,1.204c-1.829-0.08-0.122-0.53-1.516-0.838c-4.334,0.635-9.592-0.173-14.954,0.116
						c-0.08,0.188,0.826,0.457-0.319,0.757l-2.855-0.878c-1.058,0.111-0.953,1.096-2.904,0.486c0.277,0.151,0.69,0.381-0.02,0.453
						c-10.534-0.706-21.483,1.162-32.188-0.341c1.451,0.334,0.487,0.388-0.617,0.423c0.719,0.073-0.011,0.462,0.134,0.712
						l-4.48-0.616c-0.807,0.719-4.793,0.142-5.253,0.821l1.415-0.147c-1.875,0.828,2.655,1.71,2.392,2.731
						c2.099-0.942,5.581,1.228,9.027-0.13c0.767,0.192-0.647,0.34-0.235,0.568c0.872-0.453,1.93-0.564,3.897-0.407l-0.221,0.112
						c5.517-0.213,7.89,0.171,14.096,0.337l-0.468-0.494c1.333,0.042,1.617,0.194,2.243,0.308c1.515-0.792-3.743,0.03-2.365-0.838
						c1.786,0.989,9.395-0.167,10.612,0.973c2.05-0.033-0.613-0.57,1.437-0.604l0.55,0.305l0.509-0.416
						c1.345,0.041,2.032,0.42,2.088,0.687c-0.327-0.025-0.925,0.093-1.274,0.122c1.751,0.337,4.912-0.221,5.513-0.112l-1.974-0.155
						c5.591-0.404,12.419-0.123,17.805-0.865l-0.415-0.229c4.114-0.519,3.308,0.197,7.83-0.094l-0.164,0.06
						c0.901-0.254,2.109-0.396,3.349-0.394c-1.138,0.3,2.161,0.499,0.667,0.835c4.462-0.559,2.204-0.413,5.143-1.352l0.687,0.379
						c1.001-0.375,1.082-0.563,3.341-0.709c-1.849,0.373,1.453,0.571-0.618,1.059c4.757,0.77,7.032-1.005,9.226,0.211
						c2.164-1.131-4.114-0.525-2.897-0.782c-1.027-0.336,1.787-0.849,3.277-0.769c1.517-0.006,2.596,1.344,6.407,1.25
						c-0.379,0.002-0.404,0.085-0.782,0.088c1.43,0.25,2.791-0.432,4.546-0.014c0.973-0.678,2.272-0.006,2.546-0.852l-3.495,0.262
						c1.978-0.238,3.833-1.324,7.097-0.816c-0.254,0.173-1.218,0.361-1.885,0.507c0.957,0.229,1.831-0.147,2.819,0.112
						c-0.141,0.421-1.195,0.445-2.48,0.459c-1.292,0.045-2.815,0.07-3.874,0.412c1.028,0.334,4.011-0.688,2.953,0.244
						c1.53-1.207,3.728,0.178,6.297-0.688l-0.174,0.501c0.406-0.074,1.249-0.301,1.996-0.278l-1.359,0.636
						c2.082-0.53,3.981,0.539,5.971,0.262c-4.157-0.039-0.916-0.619-2.667-1.01c2.581-0.315,3.313,0.043,4.115,0.479
						c0.803,0.424,1.676,0.905,4.556,0.927c-0.781,0.033-2.91-0.446-1.681-0.62c1.091,0.158,2.529,0.422,3.188,0.721
						c3.816,0.084-0.558-0.547,1.082-0.775c1.266,0.68,1.887-0.163,3.577-0.265l-0.021,0.512c4.334,0.638,1.225-0.983,5.123-0.308
						l-1.706,0.591l2.057-0.038l-0.462,0.551c2.253-0.273,2.939-0.111,5.105,0.206c-0.479-0.394,0.353-0.913,2.289-0.778
						c1.295,0.405-0.776,0.428,1.971,0.567c-0.643,0.271-1.352,0.62-2.509,0.058c-0.135,0.155-0.635,0.272-0.772,0.43
						c1.391,0.455,3.563,0.354,4.556,0.427c-0.381-0.049-0.835-0.112-1.064-0.203l4.028-0.399c0.611,0.241,0.103,0.356-0.4,0.47
						c0.809,0.007,1.384-0.185,2.571-0.136c-0.338,0.392-0.297,0.825-1.988,0.891l3.822-0.166c0.236,0.204,1.913,0.635,1.407,0.754
						c2.094,0.39,5.23-0.447,8.004,0.068c0.15-0.07,0.446-0.127,1.044-0.146c2.613,0.303,4.943,0.855,8.094,0.447l1.746,0.826
						c2.458-0.058-2.365-1.049,1.722-1.145c2.893-0.107,1.057,0.686,2.064,0.939c1.459-0.36,3.97-1.112,6.626-0.485
						C209.162,486.838,208.471,486.723,207.647,486.772z M237.814,485.45c-0.573,0.135-1.708,0.521-2.149,0.239
						C236.29,485.072,236.818,485.328,237.814,485.45z M283.307,483.165c-0.435,0.161-1.102,0.063-1.854-0.146
						C282,482.989,282.619,483.02,283.307,483.165z M410.09,476.96c-0.023,0.011-0.042,0.017-0.061,0.029
						C408.712,476.877,409.18,476.924,410.09,476.96z M412.809,477.001c0.269-0.089,0.244-0.159,0.124-0.223
						c-0.18,0.142-0.786,0.19-1.479,0.2C411.654,477.1,412.009,477.169,412.809,477.001z M123.873,478.375l0.526,0.124
						C123.216,478.669,123.546,478.53,123.873,478.375z"/>
					<path fill="#8D2020" d="M278.136,483.852c-0.164-0.084-0.21-0.179-0.248-0.274
						C277.659,483.665,277.654,483.764,278.136,483.852z"/>
					<path fill="#8D2020" d="M188.837,486.279l-0.091-0.012c-0.052,0.026-0.082,0.057-0.099,0.086L188.837,486.279z"/>
					<path fill="#8D2020" d="M371.523,484.916c-0.56-0.023-0.877-0.097-1.091-0.182
						C370.412,484.858,370.676,484.959,371.523,484.916z"/>
					<path fill="#8D2020" d="M427.145,475.443l-1.74,0.188c0.843-0.052,1.146,0.051,1.574,0.118
						C426.936,475.631,426.599,475.469,427.145,475.443z"/>
					<path fill="#8D2020" d="M442.205,478.26c0.251-0.069,0.535-0.021,0.782-0.092l-0.075-0.236
						C441.838,477.977,441.092,478.188,442.205,478.26z"/>
					<path fill="#8D2020" d="M428.792,477.094c0.146,0.426,1.229,0.245,2.442,0.127c-0.073,0.004-0.144,0.01-0.216,0.006
						C431.37,476.613,430.076,476.854,428.792,477.094z"/>
					<path fill="#8D2020" d="M431.516,477.197c0.374-0.035,0.753-0.048,1.117-0.034C432.77,476.923,432.183,477.114,431.516,477.197
						z"/>
					<path fill="#8D2020" d="M416.221,476.487c0.582,0.073,0.329-0.573,0.665-0.42C417.496,475.477,413.086,476.985,416.221,476.487
						z"/>
					<polygon fill="#8D2020" points="429.799,478.481 429.355,477.963 428.688,478.413 					"/>
					<path fill="#8D2020" d="M420.235,478.395l1.939,0.084c-0.033-0.088,0.211-0.147,0.511-0.197
						C421.494,478.303,420.183,478.239,420.235,478.395z"/>
					<path fill="#8D2020" d="M422.688,478.282c0.62-0.009,1.211-0.04,1.554-0.138C423.904,478.161,423.182,478.202,422.688,478.282z
						"/>
					<polygon fill="#8D2020" points="427.163,478.725 426.589,478.633 425.225,478.637 					"/>
					<path fill="#8D2020" d="M399.496,479.812l-2.089,0.337c-0.197,0.2,0.385,0.261,1.161,0.12
						C399.06,480.1,399.834,479.961,399.496,479.812z"/>
					<path fill="#8D2020" d="M405.971,480.708c-0.576-0.061-0.624-0.175-0.959-0.321l-0.01,0.662L405.971,480.708z"/>
					<path fill="#8D2020" d="M399.864,481.398c-0.194,0.201-2.998,0.789-0.345,0.516
						C399.717,481.714,401.806,481.379,399.864,481.398z"/>
					<polygon fill="#8D2020" points="368.13,483.332 368.664,483.29 368.511,482.217 					"/>
					<path fill="#8D2020" d="M340.056,486.684c2.525,0.322,0.614-0.652,2.893-0.271c0.595-0.241-1.861-0.311-1.25-0.516
						C340.171,486.127,339.373,485.955,340.056,486.684z"/>
					<path fill="#8D2020" d="M341.697,485.896c0.245-0.037,0.504-0.082,0.778-0.146
						C342.035,485.807,341.827,485.854,341.697,485.896z"/>
					<polygon fill="#8D2020" points="25.769,479.725 24.16,479.53 25.201,479.873 					"/>
					<path fill="#8D2020" d="M22.694,480.586l-0.385-0.682l-0.958,0.643C21.713,480.51,22.417,480.436,22.694,480.586z"/>
					<path fill="#8D2020" d="M242.324,486.626l0.114-0.171c-0.256-0.167-0.63-0.163-1.38-0.156L242.324,486.626z"/>
					<polygon fill="#8D2020" points="220.501,487.137 220.882,487.133 220.147,486.542 					"/>
					<path fill="#8D2020" d="M201.958,488.012c0.753,0.061,1.642-0.031,2.404-0.013
						C202.705,488.104,201.781,487.209,201.958,488.012z"/>
				</g>
			</g>
		</g>
	</g>
</g>
</svg>
