<?xml version="1.0" encoding="utf-8"?>
<!-- Generator: Adobe Illustrator 16.0.0, SVG Export Plug-In . SVG Version: 6.00 Build 0)  -->
<!DOCTYPE svg PUBLIC "-//W3C//DTD SVG 1.1//EN" "http://www.w3.org/Graphics/SVG/1.1/DTD/svg11.dtd">
<svg version="1.1" id="Layer_1" xmlns="http://www.w3.org/2000/svg" xmlns:xlink="http://www.w3.org/1999/xlink" x="0px" y="0px"
	 width="500px" height="39.535px" viewBox="0 0 500 39.535" enable-background="new 0 0 500 39.535" xml:space="preserve">
<g>
	<g>
		<g>
			<g>
				<g>
					<path fill="#8D2020" d="M492.148,17.447c0.704,0.21,0.562-0.282,0.69-0.333C491.614,16.919,492.151,17.566,492.148,17.447z"/>
					<path fill="#8D2020" d="M480.148,16.077l0.236-0.147c0,0-0.452,0.042-0.904,0.084c-0.451,0.04-0.902,0.091-0.902,0.091
						s0.393-0.015,0.785-0.018C479.756,16.082,480.148,16.077,480.148,16.077z"/>
					<path fill="#8D2020" d="M469.052,14.853c0.989,0.84,4.036,0.205,5.988,0.701l0.307,0.211l0.962-0.499
						C473.889,15.036,470.728,15.213,469.052,14.853z"/>
					<path fill="#8D2020" d="M463.192,12.88c0.356,0.31-1.302,0.203,1.389,0.147c-0.134-0.038-0.172-0.058-0.249-0.084
						C464.091,12.938,463.758,12.924,463.192,12.88z"/>
					<path fill="#8D2020" d="M464.332,12.943C465.514,12.969,463.572,12.665,464.332,12.943L464.332,12.943z"/>
					<path fill="#8D2020" d="M458.883,12.919l1.559-0.224c-0.32-0.196-1.7-0.252-1.184-0.372
						C457.66,12.435,457.986,12.615,458.883,12.919z"/>
					<path fill="#8D2020" d="M457.402,13.442l0.804-0.095C458.067,13.271,457.855,13.242,457.402,13.442z"/>
					<path fill="#8D2020" d="M459.914,13.146l-1.708,0.201c0.222,0.127,0.239,0.373,0.783-0.069
						C458.845,13.5,459.186,13.291,459.914,13.146z"/>
					<path fill="#8D2020" d="M460.875,13.297c0.864,0.199,1.981,0.347,0.418,0.548C464.256,13.858,463.847,13.309,460.875,13.297z"
						/>
					<path fill="#8D2020" d="M468.429,15.599l1.135,0.299l1.015-0.165C470.072,15.802,468.375,15.349,468.429,15.599z"/>
					<path fill="#8D2020" d="M449.239,12.445c-0.096,0.162,0.521,0.425,0.638,0.631l1.14-0.188
						C450.429,12.769,449.318,12.686,449.239,12.445z"/>
					<path fill="#8D2020" d="M449.877,13.076l-1.703,0.291C449.695,13.387,449.974,13.252,449.877,13.076z"/>
					<polygon fill="#8D2020" points="457.11,14.278 459.927,13.753 456.571,14.275 					"/>
					<polygon fill="#8D2020" points="442.724,12.509 443.684,12.119 441.974,12.713 					"/>
					<path fill="#8D2020" d="M438.417,12.667c0.705-0.326-0.99-0.499-0.241-0.708c-1.17,0.083-2.161,0.373-3.05,0.637
						C436.074,12.437,437.094,12.446,438.417,12.667z"/>
					<path fill="#8D2020" d="M433.629,12.985c0.475-0.087,0.964-0.233,1.497-0.388C434.621,12.682,434.126,12.798,433.629,12.985z"
						/>
					<path fill="#8D2020" d="M445.271,13.317c-0.133-0.095-0.39-0.346-1.346-0.437l0.676,0.441
						C444.805,13.32,445.036,13.318,445.271,13.317z"/>
					<path fill="#8D2020" d="M444.624,13.336l-0.023-0.014c-0.727,0-1.229,0-1.445,0C443.34,13.324,443.783,13.328,444.624,13.336z"
						/>
					<path fill="#8D2020" d="M445.439,13.316c-0.062,0-0.107,0-0.169,0.001C445.336,13.36,445.375,13.375,445.439,13.316z"/>
					<path fill="#8D2020" d="M452.647,13.819c-1.004,0.249-3.086,0.513-1.069,0.908C452.296,14.419,451.14,14.194,452.647,13.819z"
						/>
					<path fill="#8D2020" d="M446.278,13.873l1.809,0.088c-0.036-0.119-0.364-0.291,0.131-0.421L446.278,13.873z"/>
					<polygon fill="#8D2020" points="445.396,14.028 446.278,13.873 445.607,13.842 					"/>
					<path fill="#8D2020" d="M436.725,13.327c-0.773,0.217-1.623,0.257-2.583,0.314c1.032,0.062,2.097,0.079,3.11,0.055
						C437.391,13.55,437.83,13.284,436.725,13.327z"/>
					<path fill="#8D2020" d="M440.562,13.361c-0.054,0.009-0.122,0.021-0.173,0.03C440.496,13.427,440.582,13.437,440.562,13.361z"
						/>
					<path fill="#8D2020" d="M424.702,13.878c0.051,0.026,0.1,0.052,0.152,0.079c0.012-0.027,0.019-0.052,0.033-0.079H424.702z"/>
					<path fill="#8D2020" d="M437.427,13.777c0.777,0.069,1.238-0.053,1.677-0.204c-0.579,0.06-1.192,0.104-1.852,0.123
						C437.189,13.762,437.179,13.805,437.427,13.777z"/>
					<path fill="#8D2020" d="M430.998,13.267c0.404,0.084,0.862,0.153,1.345,0.214C431.945,13.348,431.137,13.145,430.998,13.267z"
						/>
					<path fill="#8D2020" d="M440.125,13.271c0.038-0.007,0.074-0.015,0.115-0.023C439.984,13.157,440.017,13.204,440.125,13.271z"
						/>
					<path fill="#8D2020" d="M440.125,13.271c-0.398,0.075-0.709,0.194-1.021,0.302c0.471-0.047,0.907-0.106,1.285-0.183
						C440.292,13.361,440.195,13.314,440.125,13.271z"/>
					<path fill="#8D2020" d="M421.898,16.847c0.131-0.418,2.155-0.848,3.92-0.438c1.721-0.354,0.556-1.711-0.964-2.451
						c-0.05,0.185-0.045,0.354-1.813,0.642c0.625,0.216,3.948,0.449,2.46,0.862c-2.348,0.268-1.932-0.102-3.077-0.305
						c0.981,0.509-2.979,0.807-2.457,1.569l2.062-0.302C422.069,16.543,421.323,16.746,421.898,16.847z"/>
					<path fill="#8D2020" d="M428.234,13.921l0.729-0.072c-0.834-0.052-1.437-0.201-2.538-0.507
						c-1.208,0.232-1.456,0.394-1.537,0.536l3.595-0.027L428.234,13.921z"/>
					<path fill="#8D2020" d="M432.244,13.761c-0.559,0.473-2.308,0.713-1.221,1.18c2.146-0.088,1.494-0.422,2.771-0.655
						c-3.463,0.207,0.989-0.282-1.522-0.474c0.68-0.096,1.291-0.136,1.869-0.171c-0.626-0.039-1.229-0.092-1.799-0.161
						c0.032,0.01,0.055,0.018,0.081,0.026l0.016-0.002l-0.003,0.007c0.151,0.053,0.201,0.086,0.032,0.058
						c-0.012,0.006-0.054,0.009-0.072,0.011c-0.021,0.064-0.085,0.122-0.152,0.177c-1.006-0.067-0.161-0.114,0.152-0.177
						c0.011-0.022,0.037-0.045,0.04-0.069l-0.013-0.005l-3.461,0.342C429.699,13.894,430.616,13.856,432.244,13.761z"/>
					<path fill="#8D2020" d="M449.726,15.713c-0.108-0.04-0.104-0.072-0.112-0.105C449.39,15.666,449.305,15.705,449.726,15.713z"/>
					<path fill="#8D2020" d="M448.295,15.449c0.252-0.066,0.461-0.25,1.283-0.21c0.713,0.131-0.003,0.219,0.035,0.369
						c0.494-0.125,1.731-0.343,0.178-0.552l-0.245,0.064c-1.399-0.145-3.207-0.7-2.964-0.765
						C446.996,14.763,447.36,15.053,448.295,15.449z"/>
					<path fill="#8D2020" d="M440.174,14.685l-2.888,0.294l1.483,0.36l-0.081-0.236C440.336,15.157,439.974,14.873,440.174,14.685z"
						/>
					<polygon fill="#8D2020" points="424.367,13.658 424.738,13.167 423.09,13.886 					"/>
					<polygon fill="#8D2020" points="420.631,13.783 420.764,13.361 419.781,13.629 					"/>
					<path fill="#8D2020" d="M209.102,24.458l-0.853,0.159C208.654,24.561,208.913,24.509,209.102,24.458z"/>
					<path fill="#8D2020" d="M215.298,24.199l0.136-0.213C215.158,24.112,215.047,24.202,215.298,24.199z"/>
					<path fill="#8D2020" d="M328.668,19.311c-1.218-0.423-2.561-1.066-2.426-0.589l0.362,0.469
						C327.46,19.13,328.113,19.198,328.668,19.311z"/>
					<path fill="#8D2020" d="M265.476,20.249c0.117,0.044,0.24,0.09,0.361,0.136c0.301-0.162,0.583-0.313,0.837-0.45
						C266.313,20.029,265.904,20.136,265.476,20.249z"/>
					<path fill="#8D2020" d="M264.6,22.164l-1.627-0.279C263.339,21.985,263.862,22.078,264.6,22.164z"/>
					<path fill="#8D2020" d="M175.23,24.442l-1.023,0.399C175.761,24.947,175.092,24.664,175.23,24.442z"/>
					<path fill="#8D2020" d="M382.044,16.223c-1.084-0.087-1.933-0.077-2.679-0.031C380.67,16.334,381.739,16.632,382.044,16.223z"
						/>
					<path fill="#8D2020" d="M211.253,19.466c-0.509,0.106-0.723,0.21-0.702,0.312C211.076,19.676,211.369,19.574,211.253,19.466z"
						/>
					<path fill="#8D2020" d="M376.296,16.482c0.191,0.028,0.377,0.035,0.571,0.055c0.771-0.15,1.546-0.285,2.498-0.345
						C378.401,16.085,377.308,16.066,376.296,16.482z"/>
					<path fill="#8D2020" d="M53.798,22.241c-0.089-0.019-0.196-0.027-0.277-0.049C53.495,22.254,53.618,22.255,53.798,22.241z"/>
					<path fill="#8D2020" d="M18.24,18.281c0.349-0.035,0.918-0.046,1.456-0.063C19.434,18.191,18.995,18.203,18.24,18.281z"/>
					<path fill="#8D2020" d="M405.411,14.048C406.21,13.965,405.535,13.989,405.411,14.048L405.411,14.048z"/>
					<path fill="#8D2020" d="M409.393,15.724c-0.168,0.057-0.294,0.127-0.31,0.234C409.144,15.845,409.252,15.771,409.393,15.724z"
						/>
					<path fill="#8D2020" d="M368.66,20.073c-0.023,0.001-0.042,0.002-0.069,0.004C368.836,20.146,368.793,20.133,368.66,20.073z"/>
					<path fill="#8D2020" d="M406.629,14.199c-0.305-0.046-0.655-0.087-1.033-0.09C405.763,14.131,406.076,14.156,406.629,14.199z"
						/>
					<path fill="#8D2020" d="M406.455,13.987c0.278,0.009,0.497,0.016,0.705,0.022C407.258,13.929,407.166,13.884,406.455,13.987z"
						/>
					<path fill="#8D2020" d="M404.298,14.148c0.457-0.038,0.886-0.045,1.298-0.039c-0.159-0.021-0.226-0.042-0.185-0.061
						C405.177,14.069,404.847,14.099,404.298,14.148z"/>
					<path fill="#8D2020" d="M119.001,19.747c-0.053-0.013-0.113-0.021-0.171-0.04C118.029,19.914,118.381,19.876,119.001,19.747z"
						/>
					<path fill="#8D2020" d="M307.813,23.365c0.037-0.003,0.058-0.014,0.092-0.019c-0.037-0.007-0.084-0.015-0.117-0.021
						L307.813,23.365z"/>
					<path fill="#8D2020" d="M304.945,23.59c1.238-0.522,1.927-0.423,2.843-0.264l-0.889-1.366L304.945,23.59z"/>
					<path fill="#8D2020" d="M194.229,24.862l2.028,0.428c-2.46,0.664-4.243,0.417-2.335,1.012c0.303-1.442,7.928-0.088,8.19-1.538
						l1.346,0.242c-0.384,0.003-0.444,0.091-0.824,0.094c2.626,0.571,1.909-1.131,5.259-1.079c1.17,0.057,1.998,0.228,1.209,0.436
						l2.583-0.476c0.759-0.007,0.59,0.251-0.166,0.259l3.941-0.299l-0.026,0.044c0.542-0.252,1.785-0.661,2.393-0.839
						c1.009,0.159-0.489,0.176-0.223,0.343l2.146-0.451c0.906,0.331-0.867,0.778-2.367,0.795c2.115,1.341,1.775-0.447,6.191,0.185
						l-2.033,0.28c1.365,0.754,2.942,0.382,5.276,0.782c-0.559-0.24-4.693-1.063-2.364-1.534c0.669,0.077,1.544,0.087,2.798-0.263
						c0.038,0.511,1.269,0.327,2.817,0.224l-0.074,0.684c1.665-0.275,1.517-0.614,2.489-0.967c1.871-0.022,2.278,0.485,2.734,0.907
						c2.991-0.034-2.096-0.745,1.437-1.041c2.497,0.161,4.228-0.276,7.201-0.678c1.75,0.215-0.295,0.418,0.335,0.606l1.533-0.559
						c0.379,0.009,0.26,0.177,0.2,0.261c1.298-0.224,0.092-0.68,2.138-0.886c0.541-0.754,4.225,1.047,6.748,0.169
						c0.627,0.186-0.297,0.419-0.103,0.68c3.472-0.596,2.976-0.438,5.83-1.219l2.436,0.419c-1.789-0.49,0.495-1.119,2.503-1.637
						c-0.635-0.239-1.178-0.449-1.543-0.547l3.205-0.4c0.387,0.107,0.062,0.344-0.464,0.633c0.219-0.058,0.427-0.116,0.588-0.169
						c1.144,0.257,0.547,0.633-0.273,1.025c-0.388-0.137-0.774-0.273-1.151-0.406c-0.792,0.421-1.531,0.886-1.367,1.282
						c0.208-0.081,0.607-0.152,1.048-0.195c-0.207,0.114-0.339,0.216-0.243,0.283c0.107,0.07,0.441-0.083,0.965-0.262l0.723,0.749
						l0.178-0.303c0,0,0.261,0.029,0.652,0.073c0.392,0.052,0.913,0.122,1.436,0.191c1.044,0.139,2.087,0.278,2.087,0.278
						c2.996-0.702,5.616-1.772,10.378-1.99c-1.19,0.532-0.271,0.902-0.349,1.558c-1.283-0.722-3.683,0.223-6.14,0.032
						c1.283,0.099,0.996,0.407,0.668,0.51l4.397-0.546c-0.109,0.536,0.924,0.422,2.064,0.667c-0.844-1.08,3.286-0.643,5.08-0.934
						c0.102,0.359-0.336,0.715-2.511,0.586c2.382,0.848,3.137-1.187,5.479-0.46c-0.532-0.001-0.817-0.062-1.033,0.115
						c1.252-0.292,4.283,0.02,3.559,0.316l-0.531-0.003c3.526,0.22,10.746,0.439,11.31-0.453c0.03,0.118-0.506,1.068-0.726,1.242
						l6.43-2.774c-0.589,0.751,1.461,2.685-1.485,3.001c0.836,0.145,1.869,0.317,3.653,0.117c-0.568-0.134-1.38-1.179-0.593-1.218
						c2.113,0.952,1.474,0.523,4.09,1.369c-0.851-0.202,0.162-1.377,1.52-1.282c-0.221,0.173,0.055,1.204-0.448,1.31l3.441-1.052
						c-0.855,0.18-0.201,1.004,0.538,1.373c-0.35-0.234,2.953,0.099,3.869,0.006l-1.438-0.313c3.854,0.278,3.855-1.583,7.647-1.424
						c-0.46,0.235-1.158,1.489,0.786,1.688c0.448-0.314,1.437-0.962,2.721-1.734c1.285-0.751,2.865-1.492,4.529-1.771l0.648,0.333
						l2.551-0.464c-1.554,0.96-6.02,3.013-8.503,3.83c1.443,0.24,0.403,0.402,2.564,0.314c0.769,0.308-1.173,0.527-1.812,0.563
						l5.048,0.082c-0.239-0.708,3.834-0.815,3.619-1.404l-5.443,0.88c-0.228-0.707,3.112-2.106,6.653-2.072
						c0.915,0.26-0.623,1.287-0.542,1.522c0.227-0.128,1.067-0.268,1.892-0.354c0.824-0.094,1.629-0.173,1.797-0.092l-1.486,0.476
						c1.991,0.145,3.173-1.147,5.583-0.616c0.82-0.006,2.506,0.763,2.62,0.333c-1.393-0.728-1.806-3.227-0.963-3.892
						c0.286,0.032,4.32,0.518,5.282,0.841c1.393,0.535-1.898,1.67-0.715,2.129c0.035-0.193,0.76-0.488,1.062-0.595
						c0.869,0.092-0.308,0.632,1.546,0.385c0.253-0.748,3.789-0.264,0.831-0.685c1.802-0.362,1.945-0.018,4.079-0.232
						c-0.719-0.408,1.78-1.75,3.578-2.111c-0.091,0.193,0.34,0.396,0.548,0.488c3.727-0.271,5.754-0.142,9.224-0.458
						c0.336,0.144,2.029,0.198,1.345,0.575c0.487-0.174,0.923-0.462,1.992-0.58c2.129,0.429-2.377,0.321-0.729,0.921
						c0.097-0.436,2.712-0.832,4.212-1.224c-0.527-0.606-3.532,0.182-5.034,0.593c-0.09-0.894,2.478-2.078,6.076-2.802
						c2.867-0.475,1.302,0.467,1.792,0.296c5.435-0.301,4.483-2.009,9.06-1.656c1.835,0.449,0.163,1.127,0.59,1.511
						c-2.337,0.37-3.642-0.126-5.232,0.048l1.982,0.099c-0.733,0.251-2.288,0.535-3.156,0.444c1.532,0.327,9.169-0.576,13.38-0.385
						c0.731-0.241,2.005-0.524,1.386-0.713l-1.32,0.168c-1.245-0.378,2.461-0.802,0.771-0.905c1.76-0.455,3.749-0.973,6.276-0.81
						l0.494,0.635c-0.06-0.188-1.656-0.335-2.355-0.115c1.04-0.321,3.879,0.758,5.004-0.13l-1.776-0.395
						c1.782-0.381,4.004-1.152,6.235-1.003c-1.016-0.625-0.511,0.086-2.111-0.619c1.396,0.892-5.732,0.142-3.492,1.055
						c-1.656-0.821-2.832-0.281-5-0.956c0.075,0.212,0.775,0.386-1.111,0.34c-0.082,0.065-0.278,0.151-0.403,0.202
						c-0.058-0.005-0.078-0.007-0.128-0.012c0.038,0.008,0.066,0.014,0.104,0.022c-0.079,0.035-0.086,0.042,0.039,0.007
						c0.453,0.08,0.82,0.181,0.974,0.296c-0.914,0.489-3.884,0.67-4.873,0.999c-1.114-0.028,0.449-0.277-0.169-0.465l-1.478,0.481
						c-0.178-0.466-3-0.594-0.401-1.047l-2.357,0.136c-1.404-0.174-3.322-0.153-4.484,0.126c-1.117-0.02-2.751,0.767-1.818,0.307
						l-3.651,0.617l-0.044-0.116c-3.634,0.258-7.397,1.433-11.603,0.975c-1.205,0.234-2.448,0.499-4.496,0.556l-0.435-0.374
						c-1.552,0.298-4.724,0.018-5.353,0.499c-1.776-0.97-7.578,0.426-10.329,0.427l-0.063,0.543
						c-1.885,0.088-3.679,0.354-6.004,0.717l0.172,0.466c-1.997,0.5-5.21,0.047-8.391,0.125c0.21-0.188,1.02-0.161,1.596-0.065
						c-3.834-0.994-8.019,1.028-11.485,0.257c-0.859,0.151-1.482,0.076-2.083-0.059c0.08,0.001,0.151-0.006,0.213-0.02
						c-0.088-0.004-0.219-0.009-0.353-0.015c-0.378-0.091-0.768-0.197-1.188-0.284c0.357,0.125,0.7,0.229,0.999,0.28
						c-0.662-0.007-1.667,0.027-2.655,0.121l-0.407-0.521c-0.08,0.003-0.145,0.006-0.228,0.009c-0.959-0.213-0.783,0.223-0.278,0.62
						c-0.499,0.071-0.957,0.161-1.314,0.275c-0.756-0.844-2.603,0.213-3.635-0.693c-0.681,0.419-5.021,0.12-5.592,1.004
						c-0.028-0.119-0.319-0.187,0.219-0.172c-1.104-0.149-2.209-0.298-3.217-0.084l-0.44-0.669l-2.463,0.772
						c-1.455-0.457-2.056-0.712-0.571-1.151c-3.564,0.622-2.879,0.17-5.911,0.808l0.163-0.414c-1.074-0.029-2.811,0.463-3.444,0.089
						c-1.187-0.436-4.153-0.63-7.597-0.732c-3.443-0.089-7.357-0.181-10.437-0.613c1.173,1.261-2.858-0.611-3.121,0.343
						c-0.354-0.3-1.212-0.482-0.208-0.717c-3.154,0.225-4.729-0.558-6.913,0.208c-0.358-0.301,0.679-0.416,0.359-0.596
						c-0.254,0.058-1.004,0.234-1.33,0.053c-0.319-0.181,0.464-0.236,0.964-0.354c-3.222-0.015-3.553,0.881-3.792,1.723
						c-1.627-0.395-2.443-0.321-3.62,0.245c-0.567-0.271-1.515-0.55,0.485-0.671c-1.124-0.028-6.876-0.331-6.985,0.349
						c-0.354-0.168-1.573-0.033-1.868,0.049c-2.523-0.013-2.747-0.071-5.224,0.02l0.689,0.104c-0.965,0.829-2.056,0.205-4.052,0.326
						l0.056-0.085c-4.594-0.531-1.969,0.286-6.505-0.3l0.26,0.498c-0.387,1.115-4.019-0.456-6.627,0.087l0.957,0.246
						c-1.414,0.442-4.061-1.298-5.51-1.366c-0.318-0.081,0.489-0.177,0.924-0.268c-3.802-0.466-0.458,0.689-3.258,0.978
						c-0.536-0.334,0.623-0.945-1.273-0.922c-0.961-0.246-5.419,1.427-8.039,0.861c0.586,0.25,1.167,0.499-0.123,0.769
						c-1.996,0.195-5.473-0.789-7.186,0.163c-0.255-0.064-0.354-0.132-0.369-0.201c-1.496,0.294-4.887,0.6-5.786,1.116
						c-1.424-1.558-9.418,0.926-9.388-0.683l-4.655,0.055l0.126-0.165c-2.973-0.194-4.04,0.111-5.104,0.463
						c-0.685-0.142-0.175-0.27-0.115-0.353c-4.342-0.539-4.769-0.444-8.475,0.134l-0.348-0.551
						c-1.013,0.234-6.244-1.254-10.563-0.948c0.046-0.056,0.143-0.151,0.489-0.199c-4.868,0.246-11.418-2.363-13.34-0.568
						l-3.222,0.244c4.111,0.442-0.673,0.786,0.999,1.224c-1.626-0.003-4.146-0.875-2.149-0.831l0.305,0.118
						c0.802-0.944-5.097-0.718-4.942-1.388c-4.066-0.225-8.084-0.515-12.037-0.859c-3.96-0.257-7.875-0.409-11.708-0.495
						l0.885,0.788c0,0-0.667-0.02-1.334-0.04c-0.668-0.028-1.331-0.021-1.331-0.021c-0.697-0.162-0.944-0.602,0.956-0.582
						c-1.006-0.445-3.173,0.423-3.227,0.587c-3.71-0.243,1.438-0.934,0.301-0.93l-1.543,0.088l0.349,0.084
						c-1.248,0.342-1.355,0.68-3.631,0.686c-1.441-0.127-0.744-0.464-1.312-0.483c0.003-0.055-0.189-0.077-0.87-0.006l-3.345-0.001
						l1.345,0.587c-1.478,0.331-3.144,0.029-1.592,0.693c-2.279-1.027-12.477-0.144-13.872-0.449
						c-2.068,0.487-4.116,0.519-6.655,0.514c0.633,0.115,1.023,0.797-1.167,0.755c0.774-1.438-4.019-0.54-5.809-1.529
						c1.595,0.648-6.22,0.288-3.719,1.204c-1.829-0.08-0.122-0.53-1.516-0.838c-4.334,0.635-9.592-0.173-14.954,0.117
						c-0.08,0.188,0.826,0.457-0.319,0.756l-2.855-0.878c-1.058,0.112-0.953,1.096-2.904,0.486c0.277,0.152,0.69,0.381-0.02,0.454
						c-10.534-0.706-21.483,1.162-32.188-0.341c1.451,0.334,0.487,0.388-0.617,0.423c0.719,0.073-0.011,0.462,0.134,0.712
						l-4.48-0.616c-0.807,0.718-4.793,0.141-5.253,0.821l1.415-0.148c-1.875,0.829,2.655,1.71,2.392,2.732
						c2.099-0.942,5.581,1.227,9.027-0.13c0.767,0.192-0.647,0.34-0.235,0.568c0.872-0.453,1.93-0.564,3.897-0.407l-0.221,0.112
						c5.517-0.213,7.89,0.171,14.096,0.337l-0.468-0.494c1.333,0.042,1.617,0.194,2.243,0.308c1.515-0.792-3.743,0.03-2.365-0.838
						c1.786,0.989,9.395-0.167,10.612,0.973c2.05-0.034-0.613-0.571,1.437-0.604l0.55,0.304l0.509-0.416
						c1.345,0.041,2.032,0.421,2.088,0.687c-0.327-0.025-0.925,0.093-1.274,0.122c1.751,0.337,4.912-0.221,5.513-0.112l-1.974-0.156
						c5.591-0.403,12.419-0.122,17.805-0.865l-0.415-0.229c4.114-0.519,3.308,0.197,7.83-0.094l-0.164,0.06
						c0.901-0.254,2.109-0.396,3.349-0.394c-1.138,0.3,2.161,0.499,0.667,0.835c4.462-0.558,2.204-0.413,5.143-1.352l0.687,0.38
						c1.001-0.375,1.082-0.564,3.341-0.71c-1.849,0.374,1.453,0.572-0.618,1.059c4.757,0.77,7.032-1.005,9.226,0.211
						c2.164-1.131-4.114-0.525-2.897-0.782c-1.027-0.336,1.787-0.849,3.277-0.769c1.517-0.005,2.596,1.344,6.407,1.25
						c-0.379,0.002-0.404,0.085-0.782,0.088c1.43,0.25,2.791-0.431,4.546-0.013c0.973-0.678,2.272-0.006,2.546-0.852l-3.495,0.262
						c1.978-0.238,3.833-1.324,7.097-0.817c-0.254,0.173-1.218,0.361-1.885,0.507c0.957,0.23,1.831-0.148,2.819,0.112
						c-0.141,0.421-1.195,0.446-2.48,0.459c-1.292,0.045-2.815,0.071-3.874,0.412c1.028,0.335,4.011-0.687,2.953,0.245
						c1.53-1.207,3.728,0.177,6.297-0.689l-0.174,0.501c0.406-0.074,1.249-0.301,1.996-0.278l-1.359,0.635
						c2.082-0.53,3.981,0.54,5.971,0.262c-4.157-0.039-0.916-0.619-2.667-1.009c2.581-0.316,3.313,0.043,4.115,0.478
						c0.803,0.424,1.676,0.905,4.556,0.927c-0.781,0.033-2.91-0.447-1.681-0.62c1.091,0.158,2.529,0.422,3.187,0.72
						c3.816,0.084-0.558-0.547,1.082-0.775c1.266,0.68,1.887-0.163,3.577-0.265l-0.021,0.512c4.334,0.638,1.225-0.983,5.123-0.308
						l-1.706,0.591l2.057-0.038l-0.462,0.551c2.253-0.273,2.939-0.112,5.105,0.206c-0.479-0.393,0.353-0.913,2.289-0.779
						c1.295,0.406-0.776,0.428,1.971,0.568c-0.643,0.271-1.352,0.62-2.509,0.057c-0.135,0.156-0.635,0.273-0.772,0.43
						c1.391,0.455,3.563,0.355,4.556,0.427c-0.381-0.049-0.835-0.112-1.064-0.203l4.028-0.399c0.611,0.241,0.103,0.356-0.4,0.469
						c0.809,0.007,1.384-0.184,2.571-0.136c-0.338,0.392-0.297,0.826-1.988,0.891l3.822-0.166c0.236,0.204,1.913,0.635,1.407,0.754
						c2.094,0.39,5.231-0.447,8.004,0.068c0.15-0.07,0.446-0.127,1.044-0.146c2.613,0.302,4.943,0.855,8.094,0.447l1.746,0.827
						c2.458-0.058-2.365-1.049,1.722-1.145c2.893-0.107,1.057,0.685,2.064,0.939c1.459-0.36,3.97-1.112,6.626-0.485
						C195.744,24.928,195.053,24.812,194.229,24.862z M224.396,23.54c-0.573,0.135-1.708,0.521-2.149,0.239
						C222.872,23.162,223.4,23.418,224.396,23.54z M269.888,21.255c-0.434,0.161-1.101,0.063-1.854-0.146
						C268.582,21.079,269.201,21.11,269.888,21.255z M396.672,15.05c-0.024,0.01-0.042,0.017-0.061,0.029
						C395.294,14.967,395.762,15.014,396.672,15.05z M399.391,15.091c0.268-0.089,0.244-0.159,0.124-0.223
						c-0.18,0.142-0.786,0.191-1.48,0.201C398.236,15.19,398.591,15.259,399.391,15.091z M110.455,16.465l0.526,0.124
						C109.798,16.759,110.128,16.62,110.455,16.465z"/>
					<path fill="#8D2020" d="M264.718,21.942c-0.164-0.084-0.21-0.179-0.248-0.275C264.241,21.755,264.236,21.854,264.718,21.942z"
						/>
					<path fill="#8D2020" d="M175.419,24.369l-0.091-0.012c-0.052,0.027-0.082,0.057-0.099,0.086L175.419,24.369z"/>
					<path fill="#8D2020" d="M358.106,23.006c-0.56-0.023-0.877-0.097-1.091-0.182C356.994,22.948,357.258,23.049,358.106,23.006z"
						/>
					<path fill="#8D2020" d="M413.726,13.533l-1.74,0.188c0.843-0.052,1.146,0.05,1.574,0.118
						C413.518,13.721,413.181,13.558,413.726,13.533z"/>
					<path fill="#8D2020" d="M428.787,16.349c0.251-0.069,0.535-0.021,0.782-0.091l-0.075-0.236
						C428.42,16.066,427.674,16.277,428.787,16.349z"/>
					<path fill="#8D2020" d="M415.374,15.183c0.146,0.426,1.229,0.246,2.442,0.127c-0.073,0.004-0.143,0.01-0.215,0.007
						C417.952,14.703,416.658,14.944,415.374,15.183z"/>
					<path fill="#8D2020" d="M418.098,15.287c0.374-0.035,0.753-0.048,1.117-0.034C419.352,15.013,418.765,15.204,418.098,15.287z"
						/>
					<path fill="#8D2020" d="M402.803,14.577c0.582,0.073,0.329-0.573,0.665-0.42C404.078,13.566,399.668,15.075,402.803,14.577z"/>
					<polygon fill="#8D2020" points="416.381,16.571 415.938,16.053 415.269,16.503 					"/>
					<path fill="#8D2020" d="M406.817,16.484l1.94,0.085c-0.033-0.088,0.211-0.148,0.511-0.198
						C408.076,16.393,406.765,16.329,406.817,16.484z"/>
					<path fill="#8D2020" d="M409.269,16.372c0.621-0.009,1.211-0.04,1.554-0.137C410.486,16.251,409.764,16.292,409.269,16.372z"/>
					<polygon fill="#8D2020" points="413.745,16.814 413.171,16.722 411.807,16.726 					"/>
					<path fill="#8D2020" d="M386.078,17.903l-2.089,0.336c-0.197,0.2,0.385,0.261,1.161,0.12
						C385.642,18.189,386.416,18.051,386.078,17.903z"/>
					<path fill="#8D2020" d="M392.553,18.798c-0.576-0.061-0.624-0.175-0.959-0.322l-0.01,0.663L392.553,18.798z"/>
					<path fill="#8D2020" d="M386.446,19.488c-0.194,0.201-2.998,0.79-0.344,0.516C386.299,19.804,388.388,19.469,386.446,19.488z"
						/>
					<polygon fill="#8D2020" points="354.712,21.422 355.246,21.38 355.093,20.307 					"/>
					<path fill="#8D2020" d="M326.638,24.773c2.525,0.323,0.614-0.652,2.892-0.271c0.595-0.241-1.861-0.311-1.25-0.516
						C326.753,24.217,325.955,24.045,326.638,24.773z"/>
					<path fill="#8D2020" d="M328.279,23.986c0.245-0.037,0.504-0.082,0.779-0.145C328.617,23.897,328.409,23.944,328.279,23.986z"
						/>
					<polygon fill="#8D2020" points="12.351,17.814 10.742,17.62 11.783,17.963 					"/>
					<path fill="#8D2020" d="M9.276,18.676l-0.385-0.682l-0.958,0.643C8.295,18.599,8.999,18.526,9.276,18.676z"/>
					<path fill="#8D2020" d="M228.906,24.716l0.114-0.171c-0.256-0.167-0.63-0.163-1.38-0.156L228.906,24.716z"/>
					<polygon fill="#8D2020" points="207.083,25.226 207.464,25.222 206.729,24.632 					"/>
					<path fill="#8D2020" d="M188.54,26.101c0.753,0.061,1.642-0.031,2.404-0.012C189.287,26.194,188.363,25.299,188.54,26.101z"/>
				</g>
			</g>
		</g>
	</g>
</g>
</svg>
