<?xml version="1.0" encoding="utf-8"?>
<!-- Generator: Adobe Illustrator 16.0.0, SVG Export Plug-In . SVG Version: 6.00 Build 0)  -->
<!DOCTYPE svg PUBLIC "-//W3C//DTD SVG 1.1//EN" "http://www.w3.org/Graphics/SVG/1.1/DTD/svg11.dtd">
<svg version="1.1" id="Layer_1" xmlns="http://www.w3.org/2000/svg" xmlns:xlink="http://www.w3.org/1999/xlink" x="0px" y="0px"
	 width="500px" height="93px" viewBox="0 0 500 93" enable-background="new 0 0 500 93" xml:space="preserve">
<path fill="#FCFAFA" d="M176.59,40.801c-0.579,11.696-1.221,23.391-1.685,35.09c-0.091,2.275-0.883,2.771-3.021,2.771
	c-8.319-0.01-8.3,0.066-7.737-8.264c1.134-16.779,2.297-33.562,3.308-50.354c0.149-2.482,0.915-3.376,3.395-3.158
	c3.899,0.343,8.812-1.545,11.456,0.729c2.451,2.104,2.595,6.949,3.649,10.617c2.586,8.999,5.322,17.96,7.105,27.167
	c0.167,0.861,0.236,1.854,1.259,1.955c1.452,0.145,1.231-1.227,1.423-2.051c2.797-12.038,6.649-23.771,10.06-35.635
	c0.607-2.111,1.504-2.948,3.745-2.801c3.074,0.202,6.186,0.236,9.254-0.006c2.644-0.208,2.908,1.178,3.016,3.222
	c0.662,12.544,1.389,25.085,2.104,37.627c0.346,6.06,0.637,12.121,1.112,18.169c0.165,2.107-0.449,2.733-2.573,2.771
	c-9.03,0.16-9.052,0.229-9.444-8.762c-0.516-11.804-0.991-23.604-1.485-35.442c-1.199,0.229-0.956,1.284-1.146,2.006
	c-3.409,12.976-7.562,25.728-11.308,38.603c-0.618,2.123-1.579,2.813-3.782,2.783c-6.323-0.086-6.348,0.024-7.985-5.986
	c-3.326-12.217-7.102-24.312-9.598-36.75c-1.201-0.726-0.793,0.415-0.841,0.798C176.67,37.529,177.146,39.194,176.59,40.801z"/>
<path fill="#FCFAFA" d="M56.447,78.393c-0.067-4.563-0.188-9.141-0.193-13.709C56.23,50,56.308,35.316,56.193,20.634
	c-0.022-2.875,0.915-3.53,3.764-3.94c7.179-1.033,11.042,1.635,13.997,8.328c4.759,10.781,10.876,20.952,15.603,31.789
	c1.742-0.201,1.026-1.592,0.968-2.385c-0.528-7.169-0.75-14.343-0.578-21.526c0.126-5.26-0.433-10.535,0.328-15.78
	c2.311-0.544,4.673-0.065,6.986-0.319c3.143-0.345,4.282,0.733,4.208,4.048c-0.211,9.35-0.073,18.708-0.073,28.062
	c0,8.717-0.083,17.434,0.047,26.149c0.04,2.687-0.661,3.819-3.564,3.725c-10.901-0.381-7.79,1.797-12.782-7.838
	c-6.012-11.604-12.44-23.008-17.279-35.189c-1.916,1.519-1.053,3.713-0.762,5.337c0.763,4.247,0.437,8.478,0.486,12.706
	c0.085,7.442-0.051,14.887,0.072,22.328c0.035,2.1-0.547,2.903-2.67,2.673C62.123,78.492,59.248,79.223,56.447,78.393z"/>
<path fill="#FCFAFA" d="M374.111,47.785c0-9.257,0.062-18.514-0.047-27.771c-0.028-2.31,0.544-3.152,3.011-3.115
	c9.255,0.141,18.513,0.109,27.769,0.017c2.062-0.021,2.712,0.596,2.74,2.691c0.105,7.614,0.184,7.613-7.433,7.613
	c-3.83,0-7.662,0.066-11.49-0.025c-1.772-0.042-2.467,0.528-2.399,2.371c0.12,3.293,0.133,6.6-0.005,9.892
	c-0.08,1.938,0.791,2.31,2.464,2.288c4.896-0.065,9.791,0.054,14.688-0.056c2.087-0.047,3.011,0.438,3.028,2.791
	c0.065,7.289,0.166,7.287-7.075,7.287c-3.518,0-7.025,0.09-10.532-0.035c-1.881-0.062-2.659,0.396-2.576,2.455
	c0.159,3.938,0.126,7.875,0.013,11.812c-0.053,1.839,0.624,2.396,2.397,2.374c5.745-0.077,11.493,0.05,17.23-0.062
	c2.159-0.043,2.95,0.582,2.978,2.854c0.062,7.443,0.153,7.441-7.208,7.441c-8.087,0-16.176-0.108-24.259,0.062
	c-2.729,0.062-3.394-0.836-3.353-3.438C374.2,66.087,374.11,56.936,374.111,47.785z"/>
<path fill="#FCFAFA" d="M295.505,52.921c0-6.708,0-13.417-0.001-20.126c0-5.311,0-5.311-5.154-5.311
	c-2.556,0-5.113-0.077-7.666,0.022c-1.645,0.064-2.16-0.513-2.246-2.181c-0.43-8.372-0.479-8.37,7.858-8.37
	c10.542,0,21.085,0.071,31.626-0.052c2.401-0.028,3.062,0.69,3.049,3.065c-0.046,7.515,0.06,7.515-7.483,7.515
	c-7.793,0-7.793,0-7.793,7.7c0,13.523-0.052,27.047,0.045,40.571c0.014,2.18-0.521,3.102-2.823,2.887
	c-2.954-0.271-6.729,1.172-8.688-0.541c-2.057-1.789-0.604-5.634-0.681-8.562C295.412,63.997,295.505,58.458,295.505,52.921z"/>
<path fill="#FCFAFA" d="M352.422,52.9c-0.001,7.668-0.059,15.334,0.038,23c0.024,2.011-0.469,2.92-2.643,2.746
	c-2.116-0.17-4.271-0.189-6.389,0.004c-2.511,0.229-3.269-0.657-3.249-3.194c0.11-14.588,0.063-29.177,0.055-43.765
	c-0.013-4.865,0.344-4.152-4.34-4.202c-2.875-0.03-5.75-0.059-8.626,0.011c-1.478,0.036-2.219-0.462-2.061-2.003
	c0.021-0.211,0.002-0.426-0.004-0.638c-0.229-7.902-0.229-7.902,7.646-7.902c10.646,0,21.302,0.056,31.942-0.043
	c2.226-0.021,2.896,0.647,2.897,2.883c0.019,7.688,0.103,7.688-7.636,7.688c-7.646,0-7.646,0-7.646,7.527
	C352.422,40.975,352.422,46.938,352.422,52.9z"/>
<path fill="#FCFAFA" d="M131.152,78.818c-5.539-0.002-11.079-0.077-16.616,0.035c-2.22,0.045-3.078-0.73-2.945-2.955
	c0.139-2.334,0.079-4.688,0.025-7.025c-0.037-1.626,0.657-2.286,2.281-2.282c11.716,0.028,23.433,0.028,35.149,0
	c1.624-0.004,2.168,0.675,2.3,2.278c0.814,9.954,0.848,9.951-9.011,9.951C138.608,78.82,134.88,78.82,131.152,78.818z"/>
<path fill="#FCFAFA" d="M176.59,40.801c-0.36-3.04-0.134-6.068,0.06-9.831c0.946,1.729,1.321,2.844,1.062,4.138
	C176.604,36.862,177.309,38.972,176.59,40.801z"/>
<path fill="#FCFAFA" d="M255.102,31.177c-1.248,2.64-0.955,5.763-2.604,8.276c0.548-2.852,0.951-5.742,1.701-8.538
	C254.577,29.514,255.084,30.035,255.102,31.177z"/>
<path fill="#FCFAFA" d="M132.361,63.326c1.672-0.085,4.295-10.094,4.295-10.094s-8.159,1.805-11.804-3.708
	c-1.908-4.182-2.27-6.362-2.291-8.491s-0.059-13.867,6.425-15.477c2.17-0.991,5.526,0.297,5.526,0.297s7.157,2.146,5.225,17.832
	c-0.422,2.1-2.093,10.779-10.081,9.547S132.361,63.326,132.361,63.326s2.792,0.002,7.8-1.912S152.168,52,152.939,42.657
	c0.449-5.759-0.233-10.341-1.508-13.633c-4.263-12.191-14.775-13.09-17.275-13.267C113.668,13.5,110.213,32.58,110.213,32.58
	s-2.044,8.253,0.375,15.444C115.335,61.166,126.168,63.166,132.361,63.326z"/>
<path fill="#FCFAFA" d="M260.332,52.617l-2,10.044c0,0-4.83-0.337-8.332,0c-2.791,0.79-3.47,2.326-4.484,5.416
	c-1.664,6.009-1.347,10.09-7.014,10.595c-3.667-0.005-0.566-0.146-4.616,0.008s-3.17-1.741-2.445-4.294s13.934-50.099,15.066-53.05
	s0.36-4.51,4.345-4.422s7.483,0.049,10.15-0.015s2.734,2.63,4.117,7.616s13.283,47.565,14,49.859s1.883,4.794-1.68,4.27
	c-4.438-0.026-6.422-0.038-6.422-0.038s-3.345,0.892-4.347-2.689c-1.501-5.937-2.889-13.256-4.835-13.248s-4.339,0.025-4.339,0.025
	l0.005-10.191c0,0,4,0.5,4.667-0.667s-0.667-3.666-1.667-9.667c-2-6-3-10.833-4-12.5c-1,0.167-3.139,10.938-4.004,13.38
	s-2.184,5.733-2.329,8.286C251.002,53.001,260.332,52.617,260.332,52.617z"/>
<path fill="#FCFAFA" d="M432.501,44.942c0,0-3.167-0.942-2.831-4.608c0.001-5,0.003-11.167,0-12.667s2.965-1.914,2.965-1.914
	s11.532-1.753,12.26,7.407c0.272,7.173-1.51,7.42-3.529,9.426c-2.864,1.414-4.698,2.581-9.031,2.355
	c-1.833,0-13.403,11.782-2.035,9.587c11.535-4.528,12.553,10.975,12.486,8.316c0,0,1.147,5.175,2.515,10.998
	s6.701,4.828,6.701,4.828s1.332-0.147,4.499-0.076s3.167,0.071,1.211-5.94c-4.544-21.154-7.544-22.154-10.493-23.229
	c1.116-0.592,6.283-3.592,8.114-7.835c4.335-6.757,2.502-21.923-11.642-24.312c-2.356-1.111-12.689-1.025-12.689-1.025
	s-6.43,0.526-10.382,0.803s-3.087,2.277-3.087,5.61s0.048,39,0,48.14c-1.031,5.859-1.365,8.859,6.917,7.864
	c5.718,0.662,5.485-1.177,5.352-2.924c-0.073-10.071-0.046-16.245,0.042-21.25C433.001,51.334,432.501,44.942,432.501,44.942z"/>
</svg>
