<?xml version="1.0" encoding="utf-8"?>
<!-- Generator: Adobe Illustrator 16.0.0, SVG Export Plug-In . SVG Version: 6.00 Build 0)  -->
<!DOCTYPE svg PUBLIC "-//W3C//DTD SVG 1.1//EN" "http://www.w3.org/Graphics/SVG/1.1/DTD/svg11.dtd">
<svg version="1.1" id="Layer_1" xmlns="http://www.w3.org/2000/svg" xmlns:xlink="http://www.w3.org/1999/xlink" x="0px" y="0px"
	 width="500px" height="93px" viewBox="0 0 500 93" enable-background="new 0 0 500 93" xml:space="preserve">
<path fill="#FFFFFF" d="M176.59,40.801c-0.579,11.696-1.221,23.391-1.685,35.09c-0.091,2.275-0.883,2.771-3.021,2.771
	c-8.319-0.01-8.3,0.066-7.737-8.264c1.134-16.779,2.297-33.562,3.308-50.353c0.149-2.482,0.915-3.376,3.395-3.158
	c3.899,0.343,8.812-1.545,11.456,0.728c2.451,2.106,2.595,6.949,3.649,10.617c2.586,8.999,5.322,17.96,7.105,27.167
	c0.167,0.861,0.236,1.854,1.259,1.955c1.452,0.142,1.231-1.227,1.423-2.051c2.797-12.038,6.649-23.771,10.06-35.635
	c0.607-2.111,1.504-2.948,3.745-2.801c3.074,0.202,6.186,0.236,9.254-0.006c2.644-0.208,2.908,1.178,3.016,3.222
	c0.662,12.544,1.389,25.085,2.104,37.627c0.346,6.06,0.637,12.121,1.112,18.169c0.165,2.107-0.449,2.733-2.573,2.771
	c-9.03,0.16-9.052,0.229-9.444-8.762c-0.516-11.801-0.991-23.604-1.485-35.442c-1.199,0.232-0.956,1.284-1.146,2.006
	c-3.409,12.976-7.563,25.728-11.308,38.603c-0.618,2.123-1.579,2.813-3.782,2.783c-6.323-0.086-6.348,0.024-7.985-5.986
	c-3.326-12.217-7.102-24.313-9.598-36.75c-1.201-0.726-0.793,0.415-0.841,0.798C176.67,37.529,177.146,39.194,176.59,40.801z"/>
<path fill="#FFFFFF" d="M56.447,78.393c-0.067-4.566-0.186-9.141-0.193-13.709C56.23,50,56.308,35.316,56.193,20.634
	c-0.022-2.875,0.915-3.53,3.764-3.94c7.179-1.033,11.042,1.635,13.997,8.328c4.759,10.781,10.876,20.952,15.603,31.789
	c1.742-0.201,1.026-1.592,0.968-2.385c-0.528-7.169-0.75-14.343-0.578-21.526c0.126-5.26-0.433-10.535,0.328-15.78
	c2.311-0.544,4.673-0.065,6.986-0.319c3.143-0.345,4.282,0.733,4.208,4.048c-0.211,9.35-0.073,18.708-0.073,28.062
	c0,8.717-0.083,17.434,0.047,26.149c0.04,2.687-0.661,3.822-3.564,3.725c-10.901-0.381-7.79,1.797-12.782-7.838
	c-6.012-11.602-12.44-23.008-17.279-35.189c-1.916,1.519-1.053,3.713-0.762,5.337c0.763,4.247,0.437,8.475,0.486,12.706
	c0.085,7.442-0.051,14.887,0.072,22.328c0.035,2.1-0.547,2.903-2.67,2.673C62.123,78.492,59.248,79.223,56.447,78.393z"/>
<path fill="#FFFFFF" d="M447.218,49.426c4.24,2.325,6.114,6.206,7.256,10.53c1.47,5.553,2.794,11.144,4.281,16.69
	c0.363,1.354,0.271,2.045-1.305,1.961c-0.638-0.033-1.277,0-1.916,0.002c-9.216,0.021-9.215,0.021-11.297-9.137
	c-0.708-3.111-1.242-6.279-2.188-9.315c-1.627-5.229-5.489-7.329-10.909-6.499c-1.954,0.299-1.354,1.609-1.36,2.613
	c-0.056,6.492-0.109,12.982,0.019,19.477c0.043,2.172-0.503,3.145-2.812,2.885c-3.021-0.339-6.855,1.268-8.874-0.754
	c-1.75-1.751-0.514-5.479-0.521-8.327c-0.046-16.284,0.026-32.568-0.075-48.852c-0.015-2.396,0.674-3.415,3.098-3.643
	c7.004-0.659,14.004-1.328,21.003-0.183c9.018,1.476,13.894,5.712,15.315,13.104c1.54,7.982-1.408,14.108-9.13,18.958
	C447.629,49.043,447.485,49.198,447.218,49.426z"/>
<path fill="#FFFFFF" d="M254.816,62.633c-7.863,0-7.863,0-9.851,7.495c-2.254,8.511-2.256,8.383-11.077,8.552
	c-3.045,0.062-3.516-0.615-2.668-3.527c5.353-18.395,10.566-36.827,15.696-55.284c0.635-2.284,1.605-3.096,3.94-2.958
	c3.289,0.194,6.604,0.124,9.898,0.019c1.682-0.053,2.418,0.549,2.874,2.191c5.259,18.974,10.558,37.938,15.958,56.873
	c0.672,2.352-0.078,2.737-2.143,2.646c-2.442-0.111-4.909-0.183-7.342,0.021c-2.188,0.181-2.968-0.824-3.424-2.748
	c-0.841-3.52-1.984-6.967-2.775-10.493c-0.479-2.13-1.379-3.099-3.67-2.823C258.457,62.805,256.627,62.633,254.816,62.633z"/>
<path fill="#FFFFFF" d="M374.111,47.785c0-9.257,0.062-18.514-0.047-27.771c-0.028-2.31,0.544-3.152,3.011-3.115
	c9.255,0.141,18.513,0.109,27.769,0.017c2.062-0.021,2.712,0.596,2.74,2.691c0.105,7.614,0.184,7.613-7.433,7.613
	c-3.83,0-7.662,0.066-11.49-0.025c-1.772-0.042-2.467,0.528-2.399,2.371c0.12,3.293,0.133,6.6-0.005,9.892
	c-0.08,1.938,0.791,2.31,2.464,2.288c4.896-0.065,9.791,0.054,14.687-0.056c2.087-0.047,3.011,0.438,3.029,2.791
	c0.067,7.289,0.166,7.287-7.076,7.287c-3.515,0-7.025,0.09-10.532-0.035c-1.881-0.064-2.659,0.396-2.576,2.455
	c0.159,3.935,0.126,7.875,0.013,11.811c-0.053,1.839,0.624,2.396,2.397,2.374c5.745-0.077,11.493,0.05,17.232-0.062
	c2.16-0.043,2.951,0.582,2.976,2.854c0.063,7.444,0.153,7.442-7.208,7.442c-8.087,0-16.176-0.109-24.259,0.062
	c-2.728,0.061-3.391-0.836-3.35-3.438C374.2,66.087,374.11,56.936,374.111,47.785z"/>
<path fill="#FFFFFF" d="M153.147,38.977c0.018,18.626-16.696,29.568-32.597,21.343c-2.994-1.549-5.417-3.715-7.256-6.549
	c-5.493-8.467-5.124-22.358,0.947-30.181c5.654-7.282,13.413-9.033,22.016-7.608c8.268,1.369,13.337,6.576,15.755,14.48
	C152.86,33.236,153.172,36.086,153.147,38.977z"/>
<path fill="#FFFFFF" d="M295.505,52.921c0-6.708,0-13.417-0.001-20.126c0-5.311,0-5.311-5.154-5.311
	c-2.556,0-5.113-0.077-7.666,0.022c-1.645,0.064-2.16-0.513-2.246-2.181c-0.43-8.372-0.479-8.37,7.858-8.37
	c10.542,0,21.085,0.071,31.626-0.052c2.401-0.028,3.062,0.69,3.049,3.065c-0.046,7.515,0.057,7.515-7.486,7.515
	c-7.793,0-7.793,0-7.793,7.7c0,13.523-0.05,27.047,0.045,40.571c0.014,2.18-0.521,3.102-2.823,2.887
	c-2.954-0.274-6.728,1.172-8.688-0.541c-2.055-1.789-0.605-5.634-0.679-8.565C295.412,63.997,295.505,58.458,295.505,52.921z"/>
<path fill="#FFFFFF" d="M352.422,52.9c-0.001,7.668-0.059,15.334,0.038,23c0.024,2.011-0.469,2.92-2.643,2.746
	c-2.116-0.17-4.271-0.189-6.386,0.004c-2.511,0.229-3.269-0.657-3.249-3.194c0.11-14.588,0.063-29.177,0.052-43.765
	c-0.01-4.865,0.344-4.152-4.339-4.202c-2.876-0.03-5.751-0.059-8.625,0.011c-1.477,0.036-2.218-0.462-2.06-2.003
	c0.021-0.211,0.002-0.426-0.004-0.638c-0.229-7.902-0.229-7.902,7.646-7.902c10.646,0,21.3,0.056,31.943-0.043
	c2.225-0.021,2.896,0.647,2.897,2.883c0.019,7.688,0.103,7.688-7.633,7.688c-7.646,0-7.646,0-7.646,7.527
	C352.422,40.975,352.422,46.938,352.422,52.9z"/>
<path fill="#FFFFFF" d="M131.152,78.818c-5.539-0.002-11.079-0.077-16.616,0.035c-2.22,0.045-3.078-0.73-2.945-2.955
	c0.139-2.334,0.079-4.688,0.025-7.025c-0.037-1.626,0.657-2.286,2.281-2.282c11.716,0.028,23.433,0.028,35.149,0
	c1.624-0.004,2.168,0.675,2.3,2.278c0.814,9.954,0.848,9.951-9.011,9.951C138.608,78.82,134.88,78.82,131.152,78.818z"/>
<path fill="#FFFFFF" d="M176.59,40.801c-0.36-3.04-0.134-6.068,0.06-9.831c0.946,1.726,1.321,2.844,1.062,4.138
	C176.604,36.862,177.309,38.972,176.59,40.801z"/>
<path fill="#7D0000" d="M429.747,35.059c0-2.015,0.155-4.046-0.04-6.042c-0.227-2.311,0.562-3.394,2.928-3.263
	c1.479,0.081,2.979-0.052,4.439,0.145c5.024,0.678,7.562,3.299,7.896,7.996c0.368,5.206-2.009,8.782-6.745,10.149
	c-6.972,2.012-8.479,0.923-8.479-6.119C429.747,36.969,429.747,36.014,429.747,35.059z"/>
<path fill="#7D0000" d="M255.102,31.177c0.551,0.64,1.002,1.285,1.215,2.167c1.42,5.873,2.852,11.745,4.42,17.578
	c0.55,2.026,0.09,2.637-2.008,2.502c-3.164-0.204-7.646,1.053-9.167-0.566c-1.7-1.812,0.961-5.787,1.61-8.84
	c0.328-1.544,0.877-3.042,1.326-4.56c0.568-2.468,1.402-4.874,1.684-7.406C254.243,31.491,254.385,31.035,255.102,31.177z"/>
<path fill="#FFFFFF" d="M255.102,31.177c-1.248,2.64-0.955,5.763-2.604,8.276c0.548-2.852,0.951-5.742,1.701-8.538
	C254.577,29.514,255.084,30.035,255.102,31.177z"/>
<path fill="#7D0000" d="M122.575,39.148c-0.001-3.218,0.369-6.382,1.817-9.298c1.461-2.941,3.65-4.991,7.184-4.903
	c3.391,0.084,5.517,2.078,6.729,5.021c2.454,5.963,2.495,12.032,0.099,18.007c-1.252,3.123-3.408,5.455-7.142,5.385
	c-3.684-0.067-5.752-2.418-7.123-5.494C122.91,45.106,122.544,42.153,122.575,39.148z"/>
</svg>
